<svg width="100" height="20" viewBox="0 0 100 20" fill="none" xmlns="http://www.w3.org/2000/svg">
<path d="M43.7826 10.0675C43.7826 7.95051 44.4566 6.38888 46.4027 6.38888C47.5039 6.38888 48.2206 6.96797 48.2206 8.02171C48.2206 9.4979 47.2381 10.1814 45.1876 10.1814C44.7129 10.1814 44.1671 10.1814 43.7636 10.1434M29.7517 16.5039C28.1236 16.5039 27.4306 15.9628 27.4306 14.6052C27.4306 13.2477 28.3135 12.5547 30.5301 12.5547C30.7342 12.5547 31.0048 12.5547 31.1662 12.5547C31.1662 13.822 31.1234 15.303 31.1946 16.352C30.7284 16.4652 30.2504 16.5226 29.7707 16.5229M47.8789 16.3757C45.2493 16.3757 43.83 15.0039 43.83 12.8395V12.7398C44.3047 12.7636 45.254 12.773 45.7762 12.773C50.4705 12.773 52.896 11.3016 52.896 8.13563C52.896 5.40159 50.912 3.5884 46.5973 3.5884C41.3761 3.5884 39.2781 5.92372 38.8082 10.1007C38.0392 10.0533 37.2086 10.0343 36.0741 10.0295V9.31753C36.0741 5.08357 34.3226 3.55043 29.6472 3.55043C27.7576 3.49637 25.8736 3.7809 24.0842 4.39057L24.2646 7.77014C25.5555 7.0806 26.9883 6.69884 28.4511 6.65469C30.5918 6.65469 31.2373 7.53281 31.2373 9.65454V9.95357H30.5064C25.1807 9.95357 22.7172 11.5674 22.7172 14.553C22.7172 17.6336 24.2504 19.442 28.6125 19.442C30.9146 19.442 33.1835 19.1192 36.1121 19.1192C35.9333 17.717 35.8603 16.3032 35.8938 14.89C35.8938 14.2492 35.9222 13.466 35.9602 12.6069C37.2086 12.6069 38.1294 12.6496 38.737 12.6781C39.1831 17.6383 41.77 19.4467 47.0957 19.4467C49.0655 19.4467 51.0639 19.1097 52.1081 18.6256L51.9277 15.246C50.6887 15.9548 49.2873 16.3308 47.8599 16.3377" fill="#712D91"/>
<path d="M79.8377 12.0849C79.8377 10.8081 79.8614 9.10407 79.8614 9.10407C79.8614 5.27832 78.1811 3.56006 73.4393 3.56006C70.7764 3.56006 68.8778 4.03472 65.9064 4.03472C66.0726 6.72129 66.0773 10.0392 66.0678 12.1039C66.0583 14.1687 65.9966 17.9375 65.9064 19.1431H71.0043C70.8856 17.9327 70.7859 14.4535 70.8002 12.1039C70.8002 10.7654 70.8002 9.14679 70.8666 6.9776C71.4629 6.77591 72.0883 6.67329 72.7178 6.67382C74.5025 6.67382 75.0911 7.50922 75.0911 9.81132C75.0911 9.81132 75.1196 11.2353 75.1196 12.1039C75.1196 14.1972 75.0484 17.9375 74.9582 19.1431H80.056C79.9373 17.9327 79.8377 14.4535 79.8519 12.1039" fill="#712D91"/>
<path d="M63.8132 15.7349L64.022 19.1003C62.9611 19.3472 61.874 19.4636 60.7848 19.4468C57.429 19.4468 55.6443 18.0228 55.6443 14.5863C55.6443 11.8855 55.6965 8.91884 55.7202 7.29551H53.983C54.0115 6.56453 53.983 5.51554 53.983 4.74659C56.5936 4.31465 57.4148 2.84795 57.7802 0H60.6282C60.5285 1.17715 60.4383 2.88593 60.4383 4.04409H63.4856V7.29551H60.3909V13.1813C60.3909 15.4596 60.8655 16.0814 62.4177 16.0814C62.8922 16.083 63.3594 15.9638 63.7752 15.7349" fill="#712D91"/>
<path d="M5.87157 2.16463C6.51751 2.16452 7.13714 2.42056 7.59458 2.87662L10.4425 5.72458L13.2905 2.87662C13.5159 2.64973 13.784 2.46966 14.0793 2.34678C14.3746 2.2239 14.6913 2.16064 15.0111 2.16064C15.331 2.16064 15.6477 2.2239 15.943 2.34678C16.2383 2.46966 16.5063 2.64973 16.7318 2.87662L20.1683 6.31315C20.6242 6.76971 20.8803 7.38856 20.8803 8.03379C20.8803 8.67902 20.6242 9.29787 20.1683 9.75443L10.4425 19.447L0.712029 9.75918C0.256091 9.30262 0 8.68377 0 8.03854C0 7.39331 0.256091 6.77446 0.712029 6.3179L4.15331 2.87662C4.37847 2.65031 4.64625 2.47086 4.94118 2.34866C5.23611 2.22645 5.55233 2.1639 5.87157 2.16463Z" fill="#712D91"/>
<path d="M88.7771 15.9393C87.149 15.9393 86.4608 15.3982 86.4608 14.0406C86.4608 12.6831 87.3389 11.9901 89.5556 11.9901C89.7597 11.9901 90.0302 11.9901 90.1869 11.9901C90.1869 13.2575 90.1489 14.7384 90.2248 15.7874C89.7508 15.9018 89.2648 15.9592 88.7771 15.9583M94.9192 14.3492C94.9192 12.9822 95.0616 11.0266 95.0616 8.77193C95.0616 4.53797 93.3101 3.00483 88.6395 3.00483C86.761 2.95494 84.8886 3.23941 83.1097 3.84497L83.2948 7.22454C84.5842 6.5357 86.0153 6.15397 87.4766 6.10909C89.6173 6.10909 90.2628 6.98721 90.2628 9.10419V9.38899H89.5318C84.2062 9.38899 81.7427 11.0028 81.7427 13.9884C81.7427 17.069 83.2758 18.8774 87.6379 18.8774C89.94 18.8774 92.2137 18.5547 95.1375 18.5547C94.9611 17.1522 94.8881 15.7386 94.9192 14.3254" fill="#712D91"/>
<path d="M95.878 2.98584H97.4918V3.31335H96.8795V4.96991H96.495V3.31335H95.878" fill="#712D91"/>
<path d="M97.8574 2.98584H98.4175L98.6833 3.84972C98.7592 4.10129 98.8731 4.60443 98.8731 4.60443C98.8731 4.60443 98.9918 4.10129 99.0677 3.84972L99.3193 2.98584H99.8747V4.96991H99.5282V4.25318C99.5282 3.88769 99.5282 3.35133 99.5282 3.35133C99.5282 3.35133 99.4142 3.79276 99.2813 4.21521L99.0488 4.96991H98.6833L98.4507 4.21521C98.3178 3.79276 98.2039 3.35133 98.2039 3.35133H98.2086C98.2086 3.35133 98.2323 3.88769 98.2323 4.25318V4.96991H97.8811" fill="#712D91"/>
</svg>
