<svg width="64" height="64" viewBox="0 0 64 64" fill="none" xmlns="http://www.w3.org/2000/svg">
<rect opacity="0.1" width="64" height="64" rx="16" fill="#E66926"/>
<path d="M47.75 23C47.75 21.8065 47.2759 20.662 46.432 19.818C45.5881 18.9741 44.4435 18.5 43.25 18.5H42.125V17.4067C42.125 16.8013 41.6595 16.2817 41.0541 16.2514C40.902 16.2441 40.75 16.2677 40.6073 16.3209C40.4646 16.374 40.3342 16.4556 40.2239 16.5607C40.1137 16.6657 40.0259 16.7921 39.9659 16.9321C39.9059 17.072 39.875 17.2227 39.875 17.375V18.5H24.125V17.4067C24.125 16.8013 23.6595 16.2817 23.0541 16.2514C22.902 16.2441 22.75 16.2677 22.6073 16.3209C22.4646 16.374 22.3342 16.4556 22.2239 16.5607C22.1137 16.6657 22.0259 16.7921 21.9659 16.9321C21.9059 17.072 21.875 17.2227 21.875 17.375V18.5H20.75C19.5565 18.5 18.4119 18.9741 17.568 19.818C16.7241 20.662 16.25 21.8065 16.25 23V23.8438C16.25 23.9184 16.2796 23.9899 16.3324 24.0426C16.3851 24.0954 16.4567 24.125 16.5312 24.125H47.4688C47.5433 24.125 47.6149 24.0954 47.6676 24.0426C47.7204 23.9899 47.75 23.9184 47.75 23.8438V23ZM16.25 43.25C16.25 44.4435 16.7241 45.5881 17.568 46.432C18.4119 47.2759 19.5565 47.75 20.75 47.75H43.25C44.4435 47.75 45.5881 47.2759 46.432 46.432C47.2759 45.5881 47.75 44.4435 47.75 43.25V26.586C47.75 26.53 47.7278 26.4764 47.6882 26.4368C47.6487 26.3972 47.595 26.375 47.5391 26.375H16.4609C16.405 26.375 16.3513 26.3972 16.3118 26.4368C16.2722 26.4764 16.25 26.53 16.25 26.586V43.25ZM40.4375 28.625C40.7713 28.625 41.0975 28.724 41.375 28.9094C41.6525 29.0948 41.8688 29.3584 41.9965 29.6667C42.1243 29.9751 42.1577 30.3144 42.0926 30.6417C42.0275 30.9691 41.8667 31.2698 41.6307 31.5058C41.3947 31.7418 41.0941 31.9025 40.7667 31.9676C40.4394 32.0327 40.1001 31.9993 39.7917 31.8716C39.4834 31.7438 39.2198 31.5276 39.0344 31.25C38.849 30.9725 38.75 30.6463 38.75 30.3125C38.75 29.865 38.9278 29.4357 39.2443 29.1193C39.5607 28.8028 39.9899 28.625 40.4375 28.625ZM40.4375 34.25C40.7713 34.25 41.0975 34.349 41.375 34.5344C41.6525 34.7198 41.8688 34.9834 41.9965 35.2917C42.1243 35.6001 42.1577 35.9394 42.0926 36.2667C42.0275 36.5941 41.8667 36.8948 41.6307 37.1308C41.3947 37.3668 41.0941 37.5275 40.7667 37.5926C40.4394 37.6577 40.1001 37.6243 39.7917 37.4966C39.4834 37.3688 39.2198 37.1526 39.0344 36.875C38.849 36.5975 38.75 36.2713 38.75 35.9375C38.75 35.49 38.9278 35.0607 39.2443 34.7443C39.5607 34.4278 39.9899 34.25 40.4375 34.25ZM34.8125 28.625C35.1463 28.625 35.4725 28.724 35.75 28.9094C36.0275 29.0948 36.2438 29.3584 36.3715 29.6667C36.4993 29.9751 36.5327 30.3144 36.4676 30.6417C36.4025 30.9691 36.2417 31.2698 36.0057 31.5058C35.7697 31.7418 35.4691 31.9025 35.1417 31.9676C34.8144 32.0327 34.4751 31.9993 34.1667 31.8716C33.8584 31.7438 33.5948 31.5276 33.4094 31.25C33.224 30.9725 33.125 30.6463 33.125 30.3125C33.125 29.865 33.3028 29.4357 33.6193 29.1193C33.9357 28.8028 34.3649 28.625 34.8125 28.625ZM34.8125 34.25C35.1463 34.25 35.4725 34.349 35.75 34.5344C36.0275 34.7198 36.2438 34.9834 36.3715 35.2917C36.4993 35.6001 36.5327 35.9394 36.4676 36.2667C36.4025 36.5941 36.2417 36.8948 36.0057 37.1308C35.7697 37.3668 35.4691 37.5275 35.1417 37.5926C34.8144 37.6577 34.4751 37.6243 34.1667 37.4966C33.8584 37.3688 33.5948 37.1526 33.4094 36.875C33.224 36.5975 33.125 36.2713 33.125 35.9375C33.125 35.49 33.3028 35.0607 33.6193 34.7443C33.9357 34.4278 34.3649 34.25 34.8125 34.25ZM34.8125 39.875C35.1463 39.875 35.4725 39.974 35.75 40.1594C36.0275 40.3448 36.2438 40.6084 36.3715 40.9167C36.4993 41.2251 36.5327 41.5644 36.4676 41.8917C36.4025 42.2191 36.2417 42.5198 36.0057 42.7558C35.7697 42.9918 35.4691 43.1525 35.1417 43.2176C34.8144 43.2827 34.4751 43.2493 34.1667 43.1216C33.8584 42.9938 33.5948 42.7776 33.4094 42.5C33.224 42.2225 33.125 41.8963 33.125 41.5625C33.125 41.115 33.3028 40.6857 33.6193 40.3693C33.9357 40.0528 34.3649 39.875 34.8125 39.875ZM29.1875 34.25C29.5213 34.25 29.8475 34.349 30.125 34.5344C30.4025 34.7198 30.6188 34.9834 30.7465 35.2917C30.8743 35.6001 30.9077 35.9394 30.8426 36.2667C30.7775 36.5941 30.6167 36.8948 30.3807 37.1308C30.1447 37.3668 29.8441 37.5275 29.5167 37.5926C29.1894 37.6577 28.8501 37.6243 28.5417 37.4966C28.2334 37.3688 27.9698 37.1526 27.7844 36.875C27.599 36.5975 27.5 36.2713 27.5 35.9375C27.5 35.49 27.6778 35.0607 27.9943 34.7443C28.3107 34.4278 28.7399 34.25 29.1875 34.25ZM29.1875 39.875C29.5213 39.875 29.8475 39.974 30.125 40.1594C30.4025 40.3448 30.6188 40.6084 30.7465 40.9167C30.8743 41.2251 30.9077 41.5644 30.8426 41.8917C30.7775 42.2191 30.6167 42.5198 30.3807 42.7558C30.1447 42.9918 29.8441 43.1525 29.5167 43.2176C29.1894 43.2827 28.8501 43.2493 28.5417 43.1216C28.2334 42.9938 27.9698 42.7776 27.7844 42.5C27.599 42.2225 27.5 41.8963 27.5 41.5625C27.5 41.115 27.6778 40.6857 27.9943 40.3693C28.3107 40.0528 28.7399 39.875 29.1875 39.875ZM23.5625 34.25C23.8963 34.25 24.2225 34.349 24.5 34.5344C24.7775 34.7198 24.9938 34.9834 25.1215 35.2917C25.2493 35.6001 25.2827 35.9394 25.2176 36.2667C25.1525 36.5941 24.9917 36.8948 24.7557 37.1308C24.5197 37.3668 24.2191 37.5275 23.8917 37.5926C23.5644 37.6577 23.2251 37.6243 22.9167 37.4966C22.6084 37.3688 22.3448 37.1526 22.1594 36.875C21.974 36.5975 21.875 36.2713 21.875 35.9375C21.875 35.49 22.0528 35.0607 22.3693 34.7443C22.6857 34.4278 23.1149 34.25 23.5625 34.25ZM23.5625 39.875C23.8963 39.875 24.2225 39.974 24.5 40.1594C24.7775 40.3448 24.9938 40.6084 25.1215 40.9167C25.2493 41.2251 25.2827 41.5644 25.2176 41.8917C25.1525 42.2191 24.9917 42.5198 24.7557 42.7558C24.5197 42.9918 24.2191 43.1525 23.8917 43.2176C23.5644 43.2827 23.2251 43.2493 22.9167 43.1216C22.6084 42.9938 22.3448 42.7776 22.1594 42.5C21.974 42.2225 21.875 41.8963 21.875 41.5625C21.875 41.115 22.0528 40.6857 22.3693 40.3693C22.6857 40.0528 23.1149 39.875 23.5625 39.875Z" fill="#E66926"/>
</svg>
