<svg width="92" height="30" viewBox="0 0 92 30" fill="none" xmlns="http://www.w3.org/2000/svg">
<g clip-path="url(#clip0_322_1707)">
<path d="M9.73552 12.6457C10.5156 12.6457 15.5942 14.8847 15.5942 22.9355C15.5942 26.7737 14.2992 29.9566 13.5347 29.9566C13.1993 29.9566 13.0744 29.6211 13.0744 28.9736C13.0744 27.5538 13.5737 26.29 13.5737 23.2554C13.5737 17.3811 11.1553 15.0173 10.0788 13.6833C9.75893 13.2932 9.51709 13.0358 9.51709 12.8018C9.51709 12.7081 9.5795 12.6223 9.73552 12.6223M22.5295 12.8018C22.5295 13.0358 22.2876 13.2932 21.9678 13.6833C20.8834 15.0173 18.4729 17.3811 18.4729 23.2554C18.4729 26.29 18.9721 27.5538 18.9721 28.9736C18.9721 29.6211 18.8473 29.9566 18.5119 29.9566C17.7318 29.9566 16.4524 26.7503 16.4524 22.9355C16.4524 14.8847 21.5231 12.6457 22.3111 12.6457C22.4671 12.6457 22.5295 12.7315 22.5295 12.8252" fill="#0083CA"/>
<path d="M14.1667 14.2528C14.1744 14.6183 14.2898 14.9733 14.4984 15.2735C14.707 15.5736 14.9996 15.8055 15.3395 15.9401C15.6793 16.0747 16.0514 16.1059 16.4089 16.0299C16.7665 15.9539 17.0936 15.7741 17.3494 15.5129C17.6052 15.2518 17.7782 14.921 17.8467 14.5619C17.9153 14.2028 17.8763 13.8315 17.7347 13.4945C17.5931 13.1575 17.3552 12.8698 17.0507 12.6675C16.7463 12.4652 16.3889 12.3572 16.0234 12.3571C15.5261 12.3633 15.0515 12.5662 14.7035 12.9215C14.3556 13.2768 14.1625 13.7555 14.1667 14.2528Z" fill="#F6861F"/>
<path d="M6.39665 11.2493C5.94247 11.0605 5.54068 10.7647 5.22554 10.3871C4.91039 10.0095 4.69124 9.56122 4.58677 9.08059C5.0188 8.84761 5.49969 8.71982 5.99039 8.70762C6.48108 8.69542 6.96773 8.79915 7.4108 9.01038C7.79268 9.15914 8.11878 9.42307 8.34385 9.76557C8.56892 10.1081 8.68179 10.5121 8.6668 10.9217C8.3688 11.2047 7.98989 11.3877 7.58292 11.445C7.17596 11.5023 6.76124 11.4312 6.39665 11.2415M9.17387 6.12394C8.87508 5.69016 8.68446 5.19115 8.61796 4.66864C8.55146 4.14612 8.611 3.61528 8.79162 3.12048C9.31762 3.15474 9.82782 3.31421 10.2797 3.58561C10.7316 3.85701 11.1121 4.23247 11.3894 4.68072C11.6444 5.0397 11.7813 5.4691 11.7813 5.90941C11.7813 6.34971 11.6444 6.77911 11.3894 7.13809C10.9563 7.22041 10.5084 7.16632 10.1074 6.98327C9.70635 6.80023 9.37201 6.49725 9.15047 6.11614M10.5937 11.1869C10.2289 10.8962 9.93985 10.5216 9.75104 10.0951C9.56224 9.66863 9.47931 9.2028 9.50933 8.73734C9.96322 8.63382 10.4353 8.64073 10.886 8.75747C11.3367 8.87421 11.7528 9.09738 12.0993 9.40824C12.4089 9.64449 12.6374 9.97102 12.7534 10.3427C12.8694 10.7144 12.8671 11.113 12.7468 11.4834C12.4017 11.6641 12.0088 11.7327 11.6228 11.6795C11.2369 11.6264 10.8771 11.4542 10.5937 11.1869ZM12.9341 8.73734C12.7683 8.24717 12.7222 7.72448 12.7996 7.21287C12.8769 6.70126 13.0755 6.21556 13.3787 5.79629C13.8678 5.96761 14.308 6.25522 14.6613 6.63437C15.0147 7.01352 15.2706 7.47285 15.407 7.97282C15.5615 8.37978 15.5836 8.8251 15.4701 9.24534C15.3567 9.66558 15.1134 10.0393 14.7751 10.3132C14.3443 10.2764 13.9355 10.1064 13.6056 9.82686C13.2757 9.54728 13.041 9.17195 12.9341 8.75294M8.88523 16.5541C8.53307 16.6346 8.16662 16.6284 7.8174 16.536C7.46817 16.4436 7.1466 16.2678 6.88032 16.0237C7.04855 15.6985 7.29344 15.4191 7.59383 15.2098C7.89422 15.0005 8.24106 14.8675 8.60439 14.8223C8.89627 14.7531 9.20234 14.7751 9.48132 14.8853C9.76031 14.9955 9.99879 15.1886 10.1646 15.4386C10.1032 15.7346 9.95185 16.0044 9.7312 16.2111C9.51056 16.4178 9.23144 16.5512 8.93204 16.5931M6.91153 14.3308C6.50701 14.2978 6.1162 14.1687 5.77157 13.9544C5.42694 13.74 5.13844 13.4465 4.93002 13.0982C5.20701 12.8009 5.55159 12.5748 5.93455 12.439C6.31751 12.3032 6.72756 12.2617 7.12996 12.3181C7.46137 12.3351 7.7798 12.4524 8.04308 12.6544C8.30637 12.8564 8.50211 13.1336 8.60439 13.4493C8.44432 13.7496 8.19427 13.9924 7.88928 14.1435C7.5843 14.2946 7.23967 14.3464 6.90373 14.2918M6.81791 7.8012C6.49602 7.54426 6.24026 7.21405 6.07198 6.83813C5.9037 6.46221 5.82778 6.0515 5.85056 5.64026C6.25948 5.54161 6.68628 5.54403 7.09405 5.64734C7.50182 5.75064 7.8783 5.95171 8.19092 6.23316C8.46542 6.44279 8.66776 6.73275 8.76983 7.06271C8.87189 7.39267 8.8686 7.74623 8.76041 8.07424C8.44987 8.24195 8.09381 8.30592 7.74431 8.25679C7.39481 8.20767 7.07019 8.04802 6.81791 7.8012ZM11.4986 3.19069C11.3653 2.78931 11.3277 2.36234 11.3886 1.94382C11.4496 1.5253 11.6074 1.12681 11.8497 0.78012C12.2541 0.923148 12.6187 1.16052 12.9131 1.47256C13.2075 1.7846 13.4233 2.16231 13.5425 2.57439C13.6665 2.91321 13.682 3.28218 13.5869 3.6302C13.4919 3.97822 13.291 4.28808 13.0121 4.51689C12.6472 4.49022 12.3001 4.34921 12.02 4.11393C11.7399 3.87864 11.5411 3.56105 11.4518 3.20629M0.0230713 26.329C0.0230713 26.3415 0.0280027 26.3534 0.0367808 26.3621C0.0455588 26.3709 0.0574644 26.3758 0.0698785 26.3758C0.115196 26.3636 0.159528 26.3479 0.202499 26.329C4.21873 24.8813 8.42251 24.0196 12.6844 23.7702C12.7073 23.6073 12.7203 23.4432 12.7234 23.2788C12.7237 22.9734 12.7029 22.6685 12.661 22.366C8.25822 22.6558 3.98401 23.9701 0.179095 26.2042C0.0698785 26.2666 0.0230713 26.2822 0.0230713 26.329ZM23.3799 10.9217C23.3632 10.5108 23.4753 10.105 23.7005 9.76097C23.9257 9.41691 24.2527 9.15177 24.6358 9.00258C25.0789 8.79135 25.5656 8.68762 26.0563 8.69982C26.547 8.71202 27.0279 8.83981 27.4599 9.07279C27.3554 9.55342 27.1363 10.0017 26.8211 10.3793C26.506 10.7569 26.1042 11.0527 25.65 11.2415C25.2854 11.4312 24.8707 11.5023 24.4637 11.445C24.0568 11.3877 23.6778 11.2047 23.3799 10.9217ZM20.6338 7.1537C20.3789 6.79472 20.2419 6.36531 20.2419 5.92501C20.2419 5.4847 20.3789 5.0553 20.6338 4.69632C20.9107 4.24764 21.2911 3.87183 21.743 3.60037C22.195 3.32891 22.7055 3.16971 23.2316 3.13608C23.4136 3.63196 23.4738 4.16427 23.4073 4.68827C23.3408 5.21227 23.1494 5.71265 22.8494 6.14734C22.6278 6.52846 22.2935 6.83143 21.8925 7.01448C21.4914 7.19752 21.0435 7.25162 20.6104 7.1693M19.253 11.5146C19.1328 11.1442 19.1305 10.7457 19.2465 10.3739C19.3624 10.0022 19.591 9.6757 19.9005 9.43945C20.2471 9.12859 20.6632 8.90542 21.1138 8.78867C21.5645 8.67193 22.0366 8.66503 22.4905 8.76855C22.5205 9.23401 22.4376 9.69983 22.2488 10.1263C22.06 10.5529 21.7709 10.9274 21.4062 11.2181C21.1221 11.4844 20.7624 11.6559 20.3768 11.709C19.9911 11.7621 19.5984 11.6942 19.253 11.5146ZM17.2169 10.3288C16.8776 10.0556 16.6337 9.68194 16.5202 9.26142C16.4066 8.84091 16.4293 8.39522 16.585 7.98843C16.7213 7.48959 16.9762 7.03112 17.3281 6.65212C17.6799 6.27313 18.1182 5.98485 18.6055 5.81189C18.9118 6.22964 19.1129 6.71508 19.1916 7.22705C19.2704 7.73903 19.2246 8.26245 19.058 8.75294C18.951 9.17195 18.7163 9.54728 18.3864 9.82686C18.0565 10.1064 17.6478 10.2764 17.2169 10.3132M21.8976 15.3996C22.0619 15.1479 22.3002 14.9535 22.5797 14.8431C22.8591 14.7327 23.166 14.7118 23.4579 14.7833C23.8151 14.8414 24.1531 14.9844 24.4436 15.2002C24.7341 15.4161 24.9685 15.6985 25.1273 16.0237C24.8599 16.2684 24.537 16.4446 24.1864 16.537C23.8358 16.6294 23.468 16.6353 23.1146 16.5541C22.812 16.5163 22.5288 16.3846 22.3049 16.1775C22.081 15.9704 21.9277 15.6983 21.8664 15.3996M23.4267 13.4493C23.5214 13.1236 23.7149 12.8355 23.9804 12.6245C24.2459 12.4135 24.5703 12.2901 24.9089 12.2713C25.3101 12.2142 25.7192 12.2554 26.1011 12.3913C26.4829 12.5272 26.826 12.7537 27.101 13.0514C26.8948 13.3999 26.6079 13.6938 26.2645 13.9083C25.921 14.1228 25.531 14.2517 25.1273 14.284C24.7921 14.3405 24.4477 14.2904 24.1425 14.1406C23.8374 13.9908 23.587 13.749 23.4267 13.4493ZM23.294 8.07424C23.1877 7.74512 23.1878 7.39087 23.2942 7.06179C23.4007 6.7327 23.608 6.4455 23.8869 6.24096C24.1996 5.95951 24.576 5.75844 24.9838 5.65514C25.3916 5.55183 25.8184 5.54941 26.2273 5.64807C26.2432 6.06039 26.161 6.4706 25.9874 6.84493C25.8138 7.21926 25.5538 7.54701 25.2287 7.8012C24.9771 8.03862 24.6574 8.19116 24.3145 8.23734C23.9716 8.28352 23.6229 8.22102 23.3174 8.05864M19.0346 4.51689C18.7557 4.28808 18.5548 3.97822 18.4597 3.6302C18.3647 3.28218 18.3802 2.91321 18.5041 2.57439C18.6232 2.16343 18.838 1.78655 19.1309 1.47466C19.4238 1.16276 19.7865 0.924744 20.1892 0.78012C20.4433 1.12856 20.6099 1.53295 20.6751 1.95925C20.7402 2.38554 20.702 2.82126 20.5636 3.2297C20.4744 3.58445 20.2756 3.90205 19.9955 4.13733C19.7154 4.37262 19.3682 4.51362 19.0034 4.5403M31.8363 26.2276C28.0314 23.9935 23.7572 22.6792 19.3544 22.3894C19.3126 22.6919 19.2917 22.9969 19.292 23.3022C19.2952 23.4666 19.3082 23.6308 19.331 23.7936C23.5928 24.0443 27.7964 24.906 31.8129 26.3524C31.8559 26.3713 31.9002 26.387 31.9456 26.3993C31.958 26.3993 31.9699 26.3943 31.9787 26.3855C31.9874 26.3768 31.9924 26.3649 31.9924 26.3524C31.9924 26.3056 31.9456 26.29 31.8363 26.2276ZM16.0233 5.46084C15.562 5.27393 15.1701 4.94837 14.9018 4.52913C14.6335 4.10989 14.502 3.61767 14.5255 3.12048C14.5057 2.51821 14.6315 1.92004 14.8922 1.37679C15.153 0.833532 15.541 0.361232 16.0233 0C16.5056 0.361232 16.8937 0.833532 17.1544 1.37679C17.4152 1.92004 17.541 2.51821 17.5212 3.12048C17.5447 3.61767 17.4132 4.10989 17.1448 4.52913C16.8765 4.94837 16.4846 5.27393 16.0233 5.46084Z" fill="#54B948"/>
<path d="M46.8692 8.79976C46.8693 9.10666 46.9599 9.40672 47.1297 9.66239C47.2995 9.91805 47.5409 10.118 47.8237 10.2371C48.1065 10.3563 48.4182 10.3894 48.7198 10.3323C49.0213 10.2752 49.2993 10.1304 49.519 9.91606C49.7387 9.70174 49.8903 9.42739 49.9548 9.12735C50.0193 8.82731 49.9939 8.5149 49.8818 8.22921C49.7697 7.94352 49.5758 7.69725 49.3244 7.52121C49.073 7.34518 48.7752 7.24719 48.4684 7.23952C48.2603 7.23431 48.0532 7.27082 47.8594 7.3469C47.6656 7.42297 47.4889 7.53707 47.3399 7.68248C47.1908 7.82788 47.0724 8.00164 46.9916 8.19353C46.9107 8.38541 46.8691 8.59154 46.8692 8.79976ZM59.3121 17.03C59.3121 19.503 58.3448 20.5328 56.9717 20.5328C55.5987 20.5328 54.7718 19.3392 54.7718 17.2407C54.7718 15.1421 55.9966 13.3401 58.2667 13.3401C58.626 13.3353 58.9846 13.372 59.3355 13.4493L59.3121 17.03ZM59.4369 21.0632V21.8434C59.4369 24.0433 58.0873 24.9014 56.4023 24.9014C55.3819 24.8931 54.3718 24.6974 53.4222 24.3241V26.5241C54.4825 26.8414 55.5841 26.9991 56.6909 26.9921C59.8114 26.9921 61.8787 25.7049 61.8787 21.3129V11.8266C60.7232 11.5157 59.5334 11.3506 58.337 11.3351C53.9761 11.3351 52.096 14.2606 52.096 17.4279C52.096 20.3299 53.5548 22.6157 56.3554 22.6157C56.9503 22.6302 57.5393 22.4949 58.0682 22.2222C58.5971 21.9496 59.049 21.5484 59.3823 21.0554L59.4369 21.0632ZM44.6146 19.7214C43.6936 20.0959 42.7068 20.2816 41.7126 20.2675C38.7481 20.2675 36.5716 18.1534 36.5716 14.9315C36.5716 11.7096 38.7403 9.58768 41.7126 9.58768C42.7066 9.5668 43.6943 9.75001 44.6146 10.126V7.84021C43.5929 7.4937 42.5181 7.32997 41.4396 7.35654C36.8447 7.35654 33.7632 10.5316 33.7632 14.9471C33.7632 19.1129 36.6028 22.5299 41.4396 22.5299C42.5179 22.5527 43.5921 22.3891 44.6146 22.0462V19.7214ZM83.5582 17.0144C83.5582 19.4874 82.5909 20.5172 81.2179 20.5172C79.8449 20.5172 79.0179 19.3236 79.0179 17.225C79.0179 15.1265 80.2427 13.3245 82.5129 13.3245C82.8721 13.3202 83.2307 13.3568 83.5816 13.4337L83.5582 17.0144ZM86.4525 22.3504C86.2712 21.1752 86.1644 19.9896 86.1326 18.8009V11.7798C84.9769 11.4704 83.7872 11.3053 82.5909 11.2883C78.23 11.2883 76.3499 14.2138 76.3499 17.3811C76.3499 20.2831 77.8165 22.5689 80.6172 22.5689C81.3084 22.5911 81.991 22.4101 82.5804 22.0482C83.1697 21.6862 83.6399 21.1593 83.9327 20.5328H83.9951C83.9951 20.8682 84.1121 22.0072 84.1433 22.3192L86.4525 22.3504ZM49.7868 11.6004H47.2124V22.366H49.7868V11.6004ZM64.7729 22.366V14.9237C64.7729 13.9329 64.6793 12.0138 64.6559 11.5848H66.9963L67.1133 13.0904C67.4306 12.547 67.887 12.098 68.4354 11.7894C68.9839 11.4809 69.6046 11.3241 70.2338 11.3351C72.6678 11.3351 74.0252 13.1294 74.0252 15.3606V22.3816H71.4508V15.8676C71.4508 14.4946 70.6707 13.4649 69.3756 13.4649C68.0807 13.4649 67.3005 14.557 67.3005 15.8676V22.366H64.7729Z" fill="#0083CA"/>
<path d="M90.4545 20.4001C90.3495 20.3524 90.2343 20.3309 90.1191 20.3377H89.8851V20.9072H90.1347C90.2225 20.9224 90.3122 20.9224 90.3999 20.9072C90.449 20.8875 90.4906 20.8527 90.5187 20.8078C90.5467 20.763 90.5598 20.7104 90.556 20.6576C90.5629 20.6141 90.557 20.5695 90.539 20.5293C90.521 20.4891 90.4916 20.4551 90.4545 20.4313M90.1581 20.1817C90.3033 20.1734 90.4487 20.192 90.5872 20.2363C90.6641 20.2688 90.7289 20.3248 90.7724 20.3962C90.8158 20.4676 90.8356 20.5509 90.829 20.6342C90.8324 20.6953 90.8199 20.7562 90.7925 20.811C90.7651 20.8657 90.7239 20.9123 90.673 20.9462C90.6032 20.9864 90.5264 21.0129 90.4467 21.0242C90.4999 21.0294 90.5514 21.0451 90.5983 21.0706C90.6452 21.0961 90.6865 21.1307 90.7198 21.1725C90.7721 21.2455 90.802 21.3323 90.8056 21.4221V21.6483C90.7987 21.6765 90.7987 21.706 90.8056 21.7341H90.5482V21.5313C90.5482 21.3441 90.5013 21.2271 90.3999 21.1725C90.3052 21.1273 90.2002 21.1084 90.0957 21.1178H89.8773V21.7341H89.5964V20.1739L90.1581 20.1817ZM89.3156 20.1037C89.1989 20.2152 89.1068 20.3498 89.045 20.4989C88.9832 20.648 88.9531 20.8083 88.9567 20.9696C88.9537 21.1325 88.9831 21.2944 89.0434 21.4458C89.1037 21.5971 89.1936 21.735 89.3078 21.8512C89.5401 22.0817 89.8542 22.2111 90.1815 22.2111C90.5088 22.2111 90.8229 22.0817 91.0552 21.8512C91.1705 21.7353 91.2616 21.5978 91.3232 21.4464C91.3848 21.2951 91.4157 21.133 91.4141 20.9696C91.412 20.6434 91.2815 20.331 91.0508 20.1003C90.8201 19.8696 90.5078 19.7391 90.1815 19.737C90.0197 19.7349 89.8591 19.7664 89.7101 19.8296C89.561 19.8927 89.4267 19.986 89.3156 20.1037ZM91.1957 21.9838C91.0629 22.1178 90.905 22.2241 90.7309 22.2967C90.5568 22.3693 90.3701 22.4066 90.1815 22.4066C89.9929 22.4066 89.8062 22.3693 89.6321 22.2967C89.458 22.2241 89.3001 22.1178 89.1673 21.9838C89.034 21.8511 88.9287 21.6929 88.8577 21.5187C88.7866 21.3445 88.7513 21.1577 88.7539 20.9696C88.7497 20.7792 88.7835 20.5898 88.8533 20.4125C88.9231 20.2353 89.0275 20.0737 89.1604 19.9372C89.2933 19.8007 89.452 19.692 89.6273 19.6174C89.8026 19.5429 89.991 19.504 90.1815 19.503C90.3704 19.5001 90.5578 19.536 90.7323 19.6085C90.9067 19.6809 91.0644 19.7884 91.1957 19.9243C91.332 20.0535 91.44 20.2097 91.5125 20.383C91.585 20.5563 91.6206 20.7428 91.6169 20.9306C91.6198 21.1195 91.5839 21.3069 91.5114 21.4814C91.439 21.6558 91.3315 21.8135 91.1957 21.9448" fill="#0083CA"/>
</g>
<defs>
<clipPath id="clip0_322_1707">
<rect width="91.5939" height="29.98" fill="white" transform="translate(0.0230713)"/>
</clipPath>
</defs>
</svg>
