<svg width="64" height="64" viewBox="0 0 64 64" fill="none" xmlns="http://www.w3.org/2000/svg">
<rect opacity="0.1" width="64" height="64" rx="16" fill="#E66926"/>
<path d="M37.3887 18.5408C36.0204 17.0635 34.1093 16.25 31.9999 16.25C29.8793 16.25 27.9619 17.0586 26.5999 18.5267C25.2232 20.011 24.5524 22.0283 24.7099 24.2066C25.0221 28.5041 28.2923 32 31.9999 32C35.7075 32 38.9721 28.5048 39.2892 24.208C39.4488 22.0494 38.7738 20.0363 37.3887 18.5408ZM44.3749 47.75H19.6249C19.301 47.7542 18.9801 47.6862 18.6858 47.5508C18.3915 47.4154 18.131 47.2161 17.9234 46.9674C17.4663 46.4211 17.2821 45.6751 17.4185 44.9206C18.0119 41.6286 19.864 38.8632 22.7749 36.9219C25.361 35.1985 28.6369 34.25 31.9999 34.25C35.363 34.25 38.6388 35.1992 41.2249 36.9219C44.1358 38.8625 45.9879 41.6279 46.5813 44.9199C46.7177 45.6744 46.5335 46.4204 46.0765 46.9667C45.8689 47.2155 45.6085 47.415 45.3141 47.5505C45.0198 47.686 44.6989 47.7541 44.3749 47.75Z" fill="#E66926"/>
</svg>
