<svg width="449" height="1006" viewBox="0 0 449 1006" fill="none" xmlns="http://www.w3.org/2000/svg">
<g opacity="0.2">
<path d="M377.563 14.7643L406.174 14.7643C413.328 14.7643 419.561 13.3777 424.879 10.6065C430.196 7.83761 434.289 3.90443 437.153 -1.18649C440.023 -6.2774 441.457 -12.2382 441.457 -19.069C441.457 -25.8998 440.023 -31.8606 437.153 -36.9515C434.289 -42.0424 430.196 -45.9735 424.879 -48.7446C419.561 -51.5179 413.328 -52.9023 406.174 -52.9023L377.563 -52.9023L377.563 -37.9719L406.174 -37.9719C410.19 -37.9719 414.376 -37.381 417.976 -35.5038C420.653 -34.1085 422.663 -32.2552 424.144 -29.6237C425.949 -26.4187 426.527 -22.7057 426.527 -19.069C426.527 -15.4345 425.949 -11.7172 424.144 -8.51435C422.663 -5.88495 420.655 -4.02956 417.978 -2.63637C414.376 -0.759162 410.192 -0.168323 406.174 -0.168323L377.563 -0.168324L377.563 14.7643Z" fill="#BBBABB"/>
<path d="M480.114 24.7864L480.114 53.398C480.114 60.5514 478.727 66.787 475.956 72.1025C473.187 77.4201 469.254 81.5125 464.163 84.3773C459.072 87.2465 453.109 88.6812 446.28 88.6812C439.45 88.6812 433.489 87.2465 428.398 84.3773C423.307 81.5125 419.374 77.4179 416.605 72.1025C413.832 66.7848 412.447 60.5514 412.447 53.398L412.447 24.7864L427.378 24.7864L427.378 53.398C427.378 57.414 427.968 61.6023 429.846 65.1997C431.241 67.8771 433.094 69.8873 435.726 71.3677C438.931 73.1729 442.644 73.7507 446.28 73.7507C449.915 73.7507 453.632 73.1729 456.835 71.3677C459.465 69.8873 461.318 67.8793 462.713 65.2019C464.59 61.6023 465.181 57.4162 465.181 53.398L465.181 24.7864L480.112 24.7864L480.114 24.7864Z" fill="#BBBABB"/>
<path d="M480.114 162.227L480.114 133.615C480.114 126.462 478.727 120.228 475.956 114.911C473.187 109.593 469.254 105.501 464.163 102.636C459.072 99.7666 453.109 98.332 446.28 98.332C439.45 98.332 433.489 99.7666 428.398 102.636C423.307 105.501 419.374 109.593 416.605 114.911C413.832 120.228 412.447 126.462 412.447 133.615L412.447 162.227L427.378 162.227L427.378 133.615C427.378 129.599 427.968 125.413 429.846 121.813C431.241 119.136 433.094 117.126 435.726 115.646C438.931 113.84 442.644 113.262 446.28 113.262C449.915 113.262 453.632 113.84 456.835 115.646C459.465 117.126 461.318 119.134 462.713 121.811C464.59 125.413 465.181 129.597 465.181 133.615L465.181 162.227L480.112 162.227L480.114 162.227Z" fill="#BBBABB"/>
<path d="M377.563 246.764L406.174 246.764C413.328 246.764 419.561 245.378 424.879 242.607C430.196 239.838 434.289 235.904 437.153 230.813C440.023 225.723 441.457 219.762 441.457 212.931C441.457 206.1 440.023 200.139 437.153 195.048C434.289 189.958 430.196 186.027 424.879 183.255C419.561 180.482 413.328 179.098 406.174 179.098L377.563 179.098L377.563 194.03L406.174 194.03C410.19 194.03 414.376 194.621 417.976 196.498C420.653 197.894 422.663 199.747 424.144 202.379C425.949 205.583 426.527 209.296 426.527 212.933C426.527 216.568 425.949 220.285 424.144 223.488C422.663 226.117 420.655 227.973 417.978 229.366C414.376 231.243 410.192 231.834 406.174 231.834L377.563 231.834L377.563 246.766L377.563 246.764Z" fill="#BBBABB"/>
<path d="M480.114 256.787L480.114 285.399C480.114 292.552 478.727 298.787 475.956 304.103C473.187 309.421 469.254 313.513 464.163 316.378C459.072 319.247 453.109 320.682 446.28 320.682C439.45 320.682 433.489 319.247 428.398 316.378C423.307 313.513 419.374 309.418 416.605 304.103C413.832 298.785 412.447 292.552 412.447 285.399L412.447 256.787L427.378 256.787L427.378 285.399C427.378 289.415 427.968 293.603 429.846 297.2C431.241 299.878 433.094 301.888 435.726 303.368C438.931 305.173 442.644 305.751 446.28 305.751C449.915 305.751 453.632 305.173 456.835 303.368C459.465 301.888 461.318 299.88 462.713 297.202C464.59 293.603 465.181 289.417 465.181 285.399L465.181 256.787L480.112 256.787L480.114 256.787Z" fill="#BBBABB"/>
<path d="M480.114 394.226L480.114 365.614C480.114 358.461 478.727 352.227 475.956 346.91C473.187 341.592 469.254 337.5 464.163 334.635C459.072 331.766 453.109 330.331 446.28 330.331C439.45 330.331 433.489 331.766 428.398 334.635C423.307 337.5 419.374 341.592 416.605 346.91C413.832 352.227 412.447 358.461 412.447 365.614L412.447 394.226L427.378 394.226L427.378 365.614C427.378 361.598 427.968 357.41 429.846 353.812C431.241 351.135 433.094 349.127 435.726 347.647C438.931 345.839 442.644 345.264 446.28 345.264C449.915 345.264 453.632 345.841 456.835 347.647C459.465 349.127 461.318 351.135 462.713 353.812C464.59 357.412 465.181 361.598 465.181 365.616L465.181 394.228L480.112 394.228L480.114 394.226Z" fill="#BBBABB"/>
<path d="M377.563 478.765L406.174 478.765C413.328 478.765 419.561 477.378 424.879 474.607C430.196 471.838 434.289 467.905 437.153 462.814C440.023 457.723 441.457 451.763 441.457 444.932C441.457 438.101 440.023 432.14 437.153 427.049C434.289 421.958 430.196 418.025 424.879 415.256C419.561 412.483 413.328 411.098 406.174 411.098L377.563 411.098L377.563 426.031L406.174 426.031C410.19 426.031 414.376 426.622 417.976 428.497C420.653 429.892 422.663 431.745 424.144 434.377C425.949 437.582 426.527 441.295 426.527 444.932C426.527 448.566 425.949 452.284 424.144 455.486C422.663 458.116 420.655 459.969 417.978 461.364C414.376 463.242 410.192 463.832 406.174 463.832L377.563 463.832L377.563 478.765Z" fill="#BBBABB"/>
<path d="M480.114 488.789L480.114 517.4C480.114 524.554 478.727 530.789 475.956 536.105C473.187 541.422 469.254 545.515 464.163 548.38C459.072 551.249 453.109 552.683 446.28 552.683C439.45 552.683 433.489 551.249 428.398 548.38C423.307 545.512 419.374 541.42 416.605 536.105C413.832 530.787 412.447 524.554 412.447 517.4L412.447 488.789L427.378 488.789L427.378 517.4C427.378 521.416 427.968 525.605 429.846 529.202C431.241 531.879 433.094 533.887 435.726 535.37C438.931 537.175 442.644 537.753 446.28 537.753C449.915 537.753 453.632 537.175 456.835 535.37C459.465 533.889 461.318 531.882 462.713 529.204C464.59 525.605 465.181 521.418 465.181 517.4L465.181 488.789L480.112 488.789L480.114 488.789Z" fill="#BBBABB"/>
<path d="M480.114 626.227L480.114 597.615C480.114 590.462 478.727 584.226 475.956 578.911C473.187 573.593 469.254 569.501 464.163 566.636C459.072 563.767 453.109 562.332 446.28 562.332C439.45 562.332 433.489 563.767 428.398 566.636C423.307 569.501 419.374 573.595 416.605 578.911C413.832 584.229 412.447 590.462 412.447 597.615L412.447 626.227L427.377 626.227L427.377 597.615C427.377 593.599 427.968 589.411 429.846 585.814C431.241 583.136 433.094 581.126 435.726 579.646C438.931 577.84 442.644 577.263 446.28 577.263C449.915 577.263 453.632 577.84 456.835 579.646C459.464 581.126 461.318 583.134 462.713 585.812C464.59 589.411 465.181 593.597 465.181 597.615L465.181 626.227L480.111 626.227L480.114 626.227Z" fill="#BBBABB"/>
<path d="M377.563 710.765L406.174 710.765C413.328 710.765 419.561 709.378 424.879 706.607C430.196 703.838 434.289 699.905 437.153 694.814C440.023 689.723 441.457 683.76 441.457 676.931C441.457 670.1 440.023 664.14 437.153 659.049C434.289 653.958 430.196 650.025 424.879 647.256C419.561 644.482 413.328 643.098 406.174 643.098L377.563 643.098L377.563 658.028L406.174 658.028C410.19 658.028 414.376 658.619 417.976 660.496C420.653 661.892 422.663 663.745 424.144 666.376C425.949 669.581 426.527 673.294 426.527 676.931C426.527 680.566 425.949 684.281 424.144 687.486C422.663 690.115 420.655 691.968 417.978 693.364C414.376 695.241 410.192 695.832 406.174 695.832L377.563 695.832L377.563 710.762L377.563 710.765Z" fill="#BBBABB"/>
<path d="M480.114 720.789L480.114 749.4C480.114 756.554 478.727 762.787 475.956 768.105C473.187 773.423 469.254 777.515 464.163 780.38C459.072 783.249 453.109 784.684 446.28 784.684C439.45 784.684 433.489 783.249 428.398 780.38C423.307 777.515 419.374 773.423 416.605 768.105C413.832 762.787 412.447 756.554 412.447 749.4L412.447 720.789L427.377 720.789L427.377 749.4C427.377 753.416 427.968 757.605 429.846 761.202C431.241 763.88 433.094 765.89 435.726 767.37C438.931 769.175 442.644 769.753 446.28 769.753C449.915 769.753 453.632 769.175 456.835 767.37C459.464 765.89 461.318 763.882 462.713 761.204C464.59 757.605 465.181 753.419 465.181 749.4L465.181 720.789L480.111 720.789L480.114 720.789Z" fill="#BBBABB"/>
<path d="M480.114 858.227L480.114 829.615C480.114 822.462 478.727 816.226 475.956 810.911C473.187 805.593 469.254 801.501 464.163 798.636C459.072 795.767 453.109 794.332 446.28 794.332C439.45 794.332 433.489 795.767 428.398 798.636C423.307 801.501 419.374 805.596 416.605 810.911C413.832 816.229 412.447 822.462 412.447 829.615L412.447 858.227L427.377 858.227L427.377 829.615C427.377 825.599 427.968 821.411 429.846 817.814C431.241 815.136 433.094 813.126 435.726 811.646C438.931 809.84 442.644 809.263 446.28 809.263C449.915 809.263 453.632 809.84 456.835 811.646C459.464 813.126 461.318 815.134 462.713 817.812C464.59 821.411 465.181 825.597 465.181 829.615L465.181 858.227L480.111 858.227L480.114 858.227Z" fill="#BBBABB"/>
<path d="M377.563 942.767L406.174 942.767C413.328 942.767 419.561 941.381 424.879 938.609C430.196 935.84 434.289 931.907 437.153 926.816C440.023 921.725 441.457 915.762 441.457 908.932C441.457 902.101 440.023 896.14 437.153 891.049C434.289 885.958 430.196 882.027 424.879 879.256C419.561 876.483 413.328 875.098 406.174 875.098L377.563 875.098L377.563 890.029L406.174 890.029C410.19 890.029 414.376 890.62 417.976 892.497C420.653 893.892 422.663 895.745 424.144 898.377C425.949 901.582 426.527 905.295 426.527 908.932C426.527 912.568 425.949 916.284 424.144 919.489C422.663 922.118 420.655 923.971 417.978 925.367C414.376 927.244 410.192 927.835 406.174 927.835L377.563 927.835L377.563 942.765L377.563 942.767Z" fill="#BBBABB"/>
<path d="M480.114 952.79L480.114 981.401C480.114 988.555 478.727 994.788 475.956 1000.11C473.187 1005.42 469.254 1009.52 464.163 1012.38C459.072 1015.25 453.109 1016.68 446.28 1016.68C439.45 1016.68 433.489 1015.25 428.398 1012.38C423.307 1009.52 419.374 1005.42 416.605 1000.11C413.832 994.788 412.447 988.555 412.447 981.401L412.447 952.79L427.377 952.79L427.377 981.401C427.377 985.417 427.968 989.604 429.846 993.203C431.241 995.88 433.094 997.891 435.726 999.371C438.931 1001.18 442.644 1001.75 446.28 1001.75C449.915 1001.75 453.632 1001.18 456.835 999.371C459.464 997.891 461.318 995.883 462.713 993.205C464.59 989.604 465.181 985.42 465.181 981.401L465.181 952.79L480.111 952.79L480.114 952.79Z" fill="#BBBABB"/>
<path d="M353.41 48.2127L353.41 19.6011C353.41 12.4476 352.023 6.21206 349.252 0.896575C346.483 -4.42109 342.55 -8.51343 337.459 -11.3783C332.368 -14.2475 326.407 -15.6821 319.577 -15.6821C312.746 -15.6821 306.785 -14.2475 301.694 -11.3783C296.603 -8.51343 292.672 -4.41891 289.901 0.896572C287.128 6.21423 285.743 12.4476 285.743 19.6011L285.743 48.2126L300.676 48.2126L300.676 19.6011C300.676 15.585 301.267 11.3967 303.144 7.79929C304.539 5.12193 306.393 3.11172 309.024 1.63132C312.229 -0.173937 315.942 -0.751692 319.579 -0.751692C323.213 -0.751692 326.931 -0.173937 330.133 1.63132C332.763 3.11172 334.618 5.11975 336.011 7.79711C337.889 11.3967 338.479 15.5828 338.479 19.6011L338.479 48.2127L353.412 48.2127L353.41 48.2127Z" fill="#BBBABB"/>
<path d="M250.854 132.75L279.466 132.75C286.619 132.75 292.855 131.363 298.17 128.592C303.488 125.823 307.581 121.89 310.445 116.799C313.315 111.708 314.749 105.745 314.749 98.9163C314.749 92.0834 313.315 86.1225 310.445 81.0316C307.581 75.9407 303.486 72.0097 298.17 69.2386C292.853 66.4653 286.62 65.0808 279.466 65.0808L250.854 65.0808L250.854 80.0112L279.466 80.0112C283.482 80.0112 287.67 80.6021 291.268 82.4793C293.945 83.8747 295.955 85.7279 297.436 88.3595C299.241 91.5645 299.819 95.2775 299.819 98.9163C299.819 102.551 299.241 106.266 297.436 109.471C295.955 112.1 293.947 113.954 291.27 115.349C287.67 117.226 283.484 117.817 279.466 117.817L250.854 117.817L250.854 132.747L250.854 132.75Z" fill="#BBBABB"/>
<path d="M388.294 132.75L359.682 132.75C352.529 132.75 346.293 131.363 340.978 128.592C335.66 125.823 331.568 121.89 328.703 116.799C325.833 111.708 324.399 105.745 324.399 98.9163C324.399 92.0834 325.833 86.1225 328.703 81.0316C331.568 75.9407 335.66 72.0097 340.978 69.2386C346.295 66.4653 352.529 65.0808 359.682 65.0808L388.294 65.0808L388.294 80.0112L359.682 80.0112C355.666 80.0112 351.478 80.6021 347.88 82.4793C345.203 83.8747 343.195 85.7279 341.715 88.3595C339.907 91.5645 339.332 95.2775 339.332 98.9163C339.332 102.551 339.909 106.266 341.715 109.471C343.195 112.1 345.203 113.954 347.88 115.349C351.48 117.226 355.666 117.817 359.684 117.817L388.296 117.817L388.296 132.747L388.294 132.75Z" fill="#BBBABB"/>
<path d="M353.41 142.772L353.41 171.383C353.41 178.537 352.023 184.77 349.252 190.088C346.483 195.405 342.55 199.498 337.459 202.363C332.368 205.232 326.407 206.667 319.577 206.667C312.746 206.667 306.785 205.232 301.694 202.363C296.603 199.498 292.672 195.405 289.901 190.088C287.128 184.77 285.743 178.537 285.743 171.383L285.743 142.772L300.676 142.772L300.676 171.383C300.676 175.399 301.267 179.585 303.144 183.185C304.539 185.862 306.393 187.873 309.024 189.353C312.229 191.158 315.942 191.736 319.579 191.736C323.213 191.736 326.931 191.158 330.133 189.353C332.763 187.873 334.618 185.865 336.011 183.187C337.889 179.585 338.479 175.402 338.479 171.383L338.479 142.772L353.412 142.772L353.41 142.772Z" fill="#BBBABB"/>
<path d="M353.41 280.211L353.41 251.599C353.41 244.446 352.023 238.21 349.252 232.895C346.483 227.577 342.55 223.485 337.459 220.62C332.368 217.751 326.407 216.316 319.577 216.316C312.746 216.316 306.785 217.751 301.694 220.62C296.603 223.485 292.672 227.579 289.901 232.895C287.128 238.212 285.743 244.446 285.743 251.599L285.743 280.211L300.676 280.211L300.676 251.599C300.676 247.583 301.267 243.395 303.144 239.797C304.539 237.12 306.393 235.11 309.024 233.629C312.229 231.824 315.942 231.246 319.579 231.246C323.213 231.246 326.931 231.824 330.133 233.629C332.763 235.11 334.618 237.118 336.011 239.795C337.889 243.395 338.479 247.581 338.479 251.599L338.479 280.211L353.412 280.211L353.41 280.211Z" fill="#BBBABB"/>
<path d="M250.854 364.752L279.466 364.752C286.619 364.752 292.855 363.365 298.17 360.594C303.488 357.825 307.581 353.892 310.445 348.801C313.315 343.71 314.749 337.749 314.749 330.919C314.749 324.088 313.315 318.127 310.445 313.036C307.581 307.945 303.486 304.014 298.17 301.243C292.853 298.47 286.62 297.085 279.466 297.085L250.854 297.085L250.854 312.016L279.466 312.016C283.482 312.016 287.67 312.607 291.268 314.484C293.945 315.879 295.955 317.732 297.436 320.364C299.241 323.569 299.819 327.282 299.819 330.919C299.819 334.553 299.241 338.27 297.436 341.473C295.955 344.103 293.947 345.958 291.27 347.351C287.67 349.228 283.484 349.819 279.466 349.819L250.854 349.819L250.854 364.75L250.854 364.752Z" fill="#BBBABB"/>
<path d="M388.294 364.752L359.682 364.752C352.529 364.752 346.293 363.365 340.978 360.594C335.66 357.825 331.568 353.892 328.703 348.801C325.833 343.71 324.399 337.749 324.399 330.919C324.399 324.088 325.833 318.127 328.703 313.036C331.568 307.945 335.66 304.014 340.978 301.243C346.295 298.47 352.529 297.085 359.682 297.085L388.294 297.085L388.294 312.016L359.682 312.016C355.666 312.016 351.478 312.607 347.88 314.484C345.203 315.879 343.195 317.732 341.715 320.364C339.907 323.569 339.332 327.282 339.332 330.919C339.332 334.553 339.909 338.27 341.715 341.473C343.195 344.103 345.203 345.958 347.88 347.351C351.48 349.228 355.666 349.819 359.684 349.819L388.296 349.819L388.296 364.75L388.294 364.752Z" fill="#BBBABB"/>
<path d="M353.41 374.773L353.41 403.385C353.41 410.538 352.023 416.774 349.252 422.089C346.483 427.407 342.55 431.499 337.459 434.364C332.368 437.233 326.407 438.668 319.577 438.668C312.746 438.668 306.785 437.233 301.694 434.364C296.603 431.499 292.672 427.407 289.901 422.089C287.128 416.771 285.743 410.538 285.743 403.385L285.743 374.773L300.676 374.773L300.676 403.385C300.676 407.401 301.267 411.589 303.144 415.186C304.539 417.864 306.393 419.874 309.024 421.354C312.229 423.16 315.942 423.737 319.579 423.737C323.213 423.737 326.931 423.16 330.133 421.354C332.763 419.874 334.618 417.866 336.011 415.188C337.889 411.587 338.479 407.403 338.479 403.385L338.479 374.773L353.412 374.773L353.41 374.773Z" fill="#BBBABB"/>
<path d="M353.41 512.21L353.41 483.599C353.41 476.445 352.023 470.21 349.252 464.894C346.483 459.576 342.55 455.484 337.459 452.619C332.368 449.75 326.407 448.315 319.577 448.315C312.746 448.315 306.785 449.75 301.694 452.619C296.603 455.484 292.672 459.576 289.901 464.894C287.128 470.212 285.743 476.445 285.743 483.599L285.743 512.21L300.676 512.21L300.676 483.599C300.676 479.583 301.267 475.394 303.144 471.797C304.539 469.119 306.393 467.109 309.024 465.629C312.229 463.824 315.942 463.246 319.579 463.246C323.213 463.246 326.931 463.824 330.133 465.629C332.763 467.109 334.618 469.117 336.011 471.795C337.889 475.396 338.479 479.58 338.479 483.599L338.479 512.21L353.412 512.21L353.41 512.21Z" fill="#BBBABB"/>
<path d="M250.854 596.751L279.466 596.751C286.619 596.751 292.855 595.365 298.17 592.594C303.488 589.825 307.58 585.891 310.445 580.801C313.314 575.71 314.749 569.749 314.749 562.918C314.749 556.087 313.314 550.126 310.445 545.036C307.58 539.945 303.486 536.014 298.17 533.242C292.853 530.469 286.619 529.085 279.466 529.085L250.854 529.085L250.854 544.017L279.466 544.017C283.482 544.017 287.67 544.608 291.268 546.485C293.945 547.881 295.955 549.734 297.436 552.366C299.241 555.571 299.819 559.284 299.819 562.92C299.819 566.555 299.241 570.272 297.436 573.475C295.955 576.104 293.947 577.96 291.27 579.353C287.67 581.23 283.484 581.821 279.466 581.821L250.854 581.821L250.854 596.754L250.854 596.751Z" fill="#BBBABB"/>
<path d="M388.294 596.751L359.682 596.751C352.529 596.751 346.293 595.365 340.978 592.594C335.66 589.825 331.568 585.891 328.703 580.801C325.833 575.71 324.399 569.749 324.399 562.918C324.399 556.087 325.833 550.126 328.703 545.035C331.568 539.945 335.66 536.014 340.978 533.242C346.295 530.469 352.529 529.085 359.682 529.085L388.294 529.085L388.294 544.017L359.682 544.017C355.666 544.017 351.478 544.608 347.88 546.485C345.203 547.881 343.195 549.734 341.715 552.366C339.907 555.571 339.332 559.284 339.332 562.92C339.332 566.555 339.909 570.272 341.715 573.475C343.195 576.104 345.203 577.96 347.88 579.353C351.48 581.23 355.666 581.821 359.684 581.821L388.296 581.821L388.296 596.754L388.294 596.751Z" fill="#BBBABB"/>
<path d="M353.41 606.773L353.41 635.385C353.41 642.538 352.023 648.774 349.252 654.089C346.483 659.407 342.55 663.499 337.459 666.364C332.368 669.233 326.407 670.668 319.577 670.668C312.746 670.668 306.785 669.233 301.694 666.364C296.603 663.499 292.672 659.405 289.901 654.089C287.128 648.771 285.743 642.538 285.743 635.385L285.743 606.773L300.676 606.773L300.676 635.385C300.676 639.401 301.267 643.589 303.144 647.186C304.539 649.864 306.393 651.874 309.024 653.354C312.229 655.16 315.942 655.737 319.579 655.737C323.213 655.737 326.931 655.16 330.133 653.354C332.763 651.874 334.618 649.866 336.011 647.189C337.889 643.589 338.479 639.403 338.479 635.385L338.479 606.773L353.412 606.773L353.41 606.773Z" fill="#BBBABB"/>
<path d="M353.41 744.213L353.41 715.601C353.41 708.448 352.023 702.215 349.252 696.897C346.483 691.579 342.55 687.487 337.459 684.622C332.368 681.753 326.407 680.318 319.577 680.318C312.746 680.318 306.785 681.753 301.694 684.622C296.603 687.487 292.672 691.579 289.901 696.897C287.128 702.215 285.743 708.448 285.743 715.601L285.743 744.213L300.676 744.213L300.676 715.601C300.676 711.585 301.267 707.399 303.144 703.799C304.539 701.122 306.393 699.112 309.024 697.632C312.229 695.826 315.942 695.249 319.579 695.249C323.213 695.249 326.931 695.826 330.133 697.632C332.763 699.112 334.618 701.12 336.011 703.797C337.889 707.399 338.479 711.583 338.479 715.601L338.479 744.213L353.412 744.213L353.41 744.213Z" fill="#BBBABB"/>
<path d="M250.854 828.753L279.466 828.753C286.619 828.753 292.855 827.366 298.17 824.595C303.488 821.826 307.58 817.893 310.445 812.802C313.314 807.711 314.749 801.75 314.749 794.919C314.749 788.089 313.314 782.128 310.445 777.037C307.58 771.946 303.486 768.015 298.17 765.244C292.853 762.47 286.619 761.086 279.466 761.086L250.854 761.086L250.854 776.019L279.466 776.019C283.482 776.019 287.67 776.609 291.268 778.485C293.945 779.88 295.955 781.733 297.436 784.365C299.241 787.57 299.819 791.283 299.819 794.919C299.819 798.554 299.241 802.271 297.436 805.474C295.955 808.103 293.947 809.959 291.27 811.352C287.67 813.229 283.484 813.82 279.466 813.82L250.854 813.82L250.854 828.753Z" fill="#BBBABB"/>
<path d="M388.294 828.753L359.682 828.753C352.529 828.753 346.293 827.366 340.978 824.595C335.66 821.826 331.567 817.893 328.703 812.802C325.833 807.711 324.399 801.75 324.399 794.919C324.399 788.089 325.833 782.128 328.703 777.037C331.567 771.946 335.66 768.015 340.978 765.244C346.295 762.47 352.529 761.086 359.682 761.086L388.294 761.086L388.294 776.019L359.682 776.019C355.666 776.019 351.478 776.609 347.88 778.485C345.203 779.88 343.195 781.733 341.714 784.365C339.907 787.57 339.331 791.283 339.331 794.919C339.331 798.554 339.909 802.271 341.714 805.474C343.195 808.103 345.203 809.959 347.88 811.352C351.48 813.229 355.666 813.82 359.684 813.82L388.296 813.82L388.296 828.753L388.294 828.753Z" fill="#BBBABB"/>
<path d="M353.41 838.775L353.41 867.386C353.41 874.54 352.023 880.775 349.252 886.091C346.483 891.408 342.55 895.501 337.459 898.366C332.368 901.235 326.407 902.669 319.577 902.669C312.746 902.669 306.785 901.235 301.694 898.366C296.603 895.501 292.672 891.406 289.901 886.091C287.128 880.773 285.743 874.54 285.743 867.386L285.743 838.775L300.676 838.775L300.676 867.386C300.676 871.402 301.267 875.591 303.144 879.188C304.539 881.865 306.393 883.876 309.024 885.356C312.229 887.161 315.942 887.739 319.579 887.739C323.213 887.739 326.931 887.161 330.133 885.356C332.763 883.876 334.618 881.868 336.011 879.19C337.889 875.591 338.479 871.404 338.479 867.386L338.479 838.775L353.412 838.775L353.41 838.775Z" fill="#BBBABB"/>
<path d="M353.41 976.214L353.41 947.603C353.41 940.449 352.023 934.214 349.252 928.898C346.483 923.58 342.55 919.488 337.459 916.623C332.368 913.754 326.407 912.319 319.577 912.319C312.746 912.319 306.785 913.754 301.694 916.623C296.603 919.488 292.672 923.58 289.901 928.898C287.128 934.216 285.743 940.449 285.743 947.603L285.743 976.214L300.676 976.214L300.676 947.603C300.676 943.587 301.267 939.398 303.144 935.801C304.539 933.123 306.393 931.115 309.024 929.633C312.229 927.828 315.942 927.25 319.579 927.25C323.213 927.25 326.931 927.828 330.133 929.633C332.763 931.113 334.618 933.121 336.011 935.799C337.889 939.398 338.479 943.584 338.479 947.603L338.479 976.214L353.412 976.214L353.41 976.214Z" fill="#BBBABB"/>
<path d="M250.854 1060.75L279.466 1060.75C286.619 1060.75 292.855 1059.37 298.17 1056.59C303.488 1053.83 307.58 1049.89 310.445 1044.8C313.314 1039.71 314.749 1033.75 314.749 1026.92C314.749 1020.09 313.314 1014.13 310.445 1009.04C307.58 1003.95 303.486 1000.01 298.17 997.243C292.853 994.47 286.619 993.085 279.466 993.085L250.854 993.085L250.854 1008.02L279.466 1008.02C283.482 1008.02 287.67 1008.61 291.268 1010.48C293.945 1011.88 295.955 1013.73 297.436 1016.36C299.241 1019.57 299.819 1023.28 299.819 1026.92C299.819 1030.55 299.241 1034.27 297.436 1037.47C295.955 1040.1 293.947 1041.96 291.27 1043.35C287.67 1045.23 283.484 1045.82 279.466 1045.82L250.854 1045.82L250.854 1060.75L250.854 1060.75Z" fill="#BBBABB"/>
<path d="M388.294 1060.75L359.682 1060.75C352.529 1060.75 346.293 1059.37 340.978 1056.59C335.66 1053.83 331.567 1049.89 328.703 1044.8C325.833 1039.71 324.399 1033.75 324.399 1026.92C324.399 1020.09 325.833 1014.13 328.703 1009.04C331.567 1003.95 335.66 1000.01 340.978 997.243C346.295 994.47 352.529 993.085 359.682 993.085L388.294 993.085L388.294 1008.02L359.682 1008.02C355.666 1008.02 351.478 1008.61 347.88 1010.48C345.203 1011.88 343.195 1013.73 341.714 1016.36C339.907 1019.57 339.331 1023.28 339.331 1026.92C339.331 1030.55 339.909 1034.27 341.714 1037.47C343.195 1040.1 345.203 1041.96 347.88 1043.35C351.48 1045.23 355.666 1045.82 359.684 1045.82L388.296 1045.82L388.296 1060.75L388.294 1060.75Z" fill="#BBBABB"/>
<path d="M126.706 14.7643L155.318 14.7643C162.471 14.7643 168.705 13.3777 174.022 10.6065C179.34 7.83761 183.432 3.90443 186.297 -1.18649C189.166 -6.2774 190.601 -12.2382 190.601 -19.069C190.601 -25.8998 189.166 -31.8606 186.297 -36.9515C183.432 -42.0424 179.34 -45.9735 174.022 -48.7446C168.705 -51.5179 162.471 -52.9023 155.318 -52.9023L126.706 -52.9023L126.706 -37.9719L155.318 -37.9719C159.334 -37.9719 163.522 -37.381 167.12 -35.5038C169.797 -34.1085 171.807 -32.2552 173.287 -29.6237C175.093 -26.4187 175.67 -22.7057 175.67 -19.069C175.67 -15.4345 175.093 -11.7172 173.287 -8.51435C171.807 -5.88495 169.799 -4.02956 167.122 -2.63637C163.522 -0.759162 159.336 -0.168323 155.318 -0.168323L126.706 -0.168324L126.706 14.7643Z" fill="#BBBABB"/>
<path d="M264.146 14.7643L235.534 14.7643C228.381 14.7643 222.145 13.3777 216.83 10.6065C211.512 7.83761 207.42 3.90442 204.555 -1.18649C201.686 -6.2774 200.251 -12.2382 200.251 -19.069C200.251 -25.8998 201.686 -31.8606 204.555 -36.9515C207.42 -42.0424 211.514 -45.9735 216.83 -48.7446C222.147 -51.5179 228.381 -52.9023 235.534 -52.9023L264.146 -52.9023L264.146 -37.9719L235.534 -37.9719C231.518 -37.9719 227.33 -37.381 223.732 -35.5038C221.055 -34.1085 219.045 -32.2552 217.564 -29.6237C215.759 -26.4187 215.181 -22.7057 215.181 -19.069C215.181 -15.4345 215.759 -11.7172 217.564 -8.51435C219.045 -5.88495 221.053 -4.02956 223.73 -2.63637C227.33 -0.759162 231.516 -0.168323 235.534 -0.168322L264.146 -0.168321L264.146 14.7643Z" fill="#BBBABB"/>
<path d="M229.259 24.7864L229.259 53.398C229.259 60.5514 227.872 66.787 225.101 72.1025C222.332 77.4201 218.399 81.5125 213.308 84.3773C208.217 87.2465 202.256 88.6812 195.426 88.6812C188.595 88.6812 182.634 87.2465 177.543 84.3773C172.452 81.5125 168.519 77.4179 165.75 72.1025C162.977 66.7848 161.592 60.5514 161.592 53.398L161.592 24.7864L176.525 24.7864L176.525 53.398C176.525 57.414 177.116 61.6023 178.991 65.1997C180.386 67.8771 182.239 69.8873 184.871 71.3677C188.076 73.1729 191.789 73.7507 195.426 73.7507C199.06 73.7507 202.778 73.1729 205.98 71.3677C208.61 69.8873 210.463 67.8793 211.858 65.2019C213.735 61.6023 214.326 57.4162 214.326 53.398L214.326 24.7864L229.259 24.7864Z" fill="#BBBABB"/>
<path d="M229.259 162.227L229.259 133.615C229.259 126.462 227.872 120.228 225.101 114.911C222.332 109.593 218.399 105.501 213.308 102.636C208.217 99.7666 202.256 98.332 195.426 98.332C188.595 98.332 182.634 99.7666 177.543 102.636C172.452 105.501 168.519 109.593 165.75 114.911C162.977 120.228 161.592 126.462 161.592 133.615L161.592 162.227L176.525 162.227L176.525 133.615C176.525 129.599 177.116 125.413 178.991 121.813C180.386 119.136 182.239 117.126 184.871 115.646C188.076 113.84 191.789 113.262 195.426 113.262C199.06 113.262 202.778 113.84 205.98 115.646C208.61 117.126 210.463 119.134 211.858 121.811C213.735 125.413 214.326 129.597 214.326 133.615L214.326 162.227L229.259 162.227Z" fill="#BBBABB"/>
<path d="M126.706 246.764L155.318 246.764C162.471 246.764 168.705 245.378 174.022 242.607C179.34 239.838 183.432 235.904 186.297 230.813C189.166 225.723 190.601 219.762 190.601 212.931C190.601 206.1 189.166 200.139 186.297 195.048C183.432 189.958 179.34 186.027 174.022 183.255C168.705 180.482 162.471 179.098 155.318 179.098L126.706 179.098L126.706 194.03L155.318 194.03C159.334 194.03 163.522 194.621 167.12 196.498C169.797 197.894 171.807 199.747 173.287 202.379C175.093 205.583 175.67 209.296 175.67 212.933C175.67 216.568 175.093 220.285 173.287 223.488C171.807 226.117 169.799 227.973 167.122 229.366C163.522 231.243 159.336 231.834 155.318 231.834L126.706 231.834L126.706 246.766L126.706 246.764Z" fill="#BBBABB"/>
<path d="M264.146 246.764L235.534 246.764C228.381 246.764 222.145 245.378 216.83 242.607C211.512 239.838 207.42 235.904 204.555 230.813C201.686 225.723 200.251 219.762 200.251 212.931C200.251 206.1 201.686 200.139 204.555 195.048C207.42 189.958 211.514 186.027 216.83 183.255C222.147 180.482 228.381 179.098 235.534 179.098L264.146 179.098L264.146 194.03L235.534 194.03C231.518 194.03 227.33 194.621 223.732 196.498C221.055 197.894 219.045 199.747 217.564 202.379C215.759 205.583 215.181 209.296 215.181 212.933C215.181 216.568 215.759 220.285 217.564 223.488C219.045 226.117 221.053 227.973 223.73 229.366C227.33 231.243 231.516 231.834 235.534 231.834L264.146 231.834L264.146 246.766L264.146 246.764Z" fill="#BBBABB"/>
<path d="M229.259 256.787L229.259 285.399C229.259 292.552 227.872 298.787 225.101 304.103C222.332 309.421 218.399 313.513 213.308 316.378C208.217 319.247 202.256 320.682 195.426 320.682C188.595 320.682 182.634 319.247 177.543 316.378C172.452 313.513 168.519 309.418 165.75 304.103C162.977 298.785 161.592 292.552 161.592 285.399L161.592 256.787L176.525 256.787L176.525 285.399C176.525 289.415 177.116 293.603 178.991 297.2C180.386 299.878 182.239 301.888 184.871 303.368C188.076 305.173 191.789 305.751 195.426 305.751C199.06 305.751 202.777 305.173 205.98 303.368C208.61 301.888 210.463 299.88 211.858 297.202C213.735 293.603 214.326 289.417 214.326 285.399L214.326 256.787L229.259 256.787Z" fill="#BBBABB"/>
<path d="M229.259 394.226L229.259 365.614C229.259 358.461 227.872 352.227 225.101 346.91C222.332 341.592 218.399 337.5 213.308 334.635C208.217 331.766 202.256 330.331 195.426 330.331C188.595 330.331 182.634 331.766 177.543 334.635C172.452 337.5 168.519 341.592 165.75 346.91C162.977 352.227 161.592 358.461 161.592 365.614L161.592 394.226L176.525 394.226L176.525 365.614C176.525 361.598 177.116 357.41 178.991 353.812C180.386 351.135 182.239 349.127 184.871 347.647C188.076 345.839 191.789 345.264 195.426 345.264C199.06 345.264 202.777 345.841 205.98 347.647C208.61 349.127 210.463 351.135 211.858 353.812C213.735 357.412 214.326 361.598 214.326 365.616L214.326 394.228L229.259 394.228L229.259 394.226Z" fill="#BBBABB"/>
<path d="M126.706 478.765L155.318 478.765C162.471 478.765 168.705 477.378 174.022 474.607C179.34 471.838 183.432 467.905 186.297 462.814C189.166 457.723 190.601 451.763 190.601 444.932C190.601 438.101 189.166 432.14 186.297 427.049C183.432 421.958 179.34 418.025 174.022 415.256C168.705 412.483 162.471 411.098 155.318 411.098L126.706 411.098L126.706 426.031L155.318 426.031C159.334 426.031 163.522 426.622 167.119 428.497C169.797 429.892 171.807 431.745 173.287 434.377C175.093 437.582 175.67 441.295 175.67 444.932C175.67 448.566 175.093 452.284 173.287 455.486C171.807 458.116 169.799 459.969 167.122 461.364C163.522 463.242 159.336 463.832 155.318 463.832L126.706 463.832L126.706 478.765Z" fill="#BBBABB"/>
<path d="M264.146 478.765L235.534 478.765C228.381 478.765 222.145 477.378 216.83 474.607C211.512 471.838 207.42 467.905 204.555 462.814C201.685 457.723 200.251 451.763 200.251 444.932C200.251 438.101 201.685 432.14 204.555 427.049C207.42 421.958 211.514 418.025 216.83 415.256C222.147 412.483 228.381 411.098 235.534 411.098L264.146 411.098L264.146 426.031L235.534 426.031C231.518 426.031 227.33 426.622 223.732 428.497C221.055 429.892 219.045 431.745 217.564 434.377C215.759 437.582 215.181 441.295 215.181 444.932C215.181 448.566 215.759 452.284 217.564 455.486C219.045 458.116 221.053 459.969 223.73 461.364C227.33 463.242 231.516 463.832 235.534 463.832L264.146 463.832L264.146 478.765Z" fill="#BBBABB"/>
<path d="M229.259 488.789L229.259 517.4C229.259 524.554 227.872 530.789 225.101 536.105C222.332 541.422 218.399 545.515 213.308 548.38C208.217 551.249 202.256 552.683 195.426 552.683C188.595 552.683 182.634 551.249 177.543 548.38C172.452 545.512 168.519 541.42 165.75 536.105C162.977 530.787 161.592 524.554 161.592 517.4L161.592 488.789L176.525 488.789L176.525 517.4C176.525 521.416 177.116 525.605 178.991 529.202C180.386 531.879 182.239 533.887 184.871 535.37C188.076 537.175 191.789 537.753 195.426 537.753C199.06 537.753 202.777 537.175 205.98 535.37C208.61 533.889 210.463 531.882 211.858 529.204C213.735 525.605 214.326 521.418 214.326 517.4L214.326 488.789L229.259 488.789Z" fill="#BBBABB"/>
<path d="M229.259 626.227L229.259 597.615C229.259 590.462 227.872 584.226 225.101 578.911C222.332 573.593 218.399 569.501 213.308 566.636C208.217 563.767 202.256 562.332 195.426 562.332C188.595 562.332 182.634 563.767 177.543 566.636C172.452 569.501 168.519 573.595 165.75 578.911C162.977 584.229 161.592 590.462 161.592 597.615L161.592 626.227L176.525 626.227L176.525 597.615C176.525 593.599 177.116 589.411 178.991 585.814C180.386 583.136 182.239 581.126 184.871 579.646C188.076 577.84 191.789 577.263 195.426 577.263C199.06 577.263 202.777 577.84 205.98 579.646C208.61 581.126 210.463 583.134 211.858 585.812C213.735 589.411 214.326 593.597 214.326 597.615L214.326 626.227L229.259 626.227Z" fill="#BBBABB"/>
<path d="M126.706 710.765L155.318 710.765C162.471 710.765 168.704 709.378 174.022 706.607C179.34 703.838 183.432 699.905 186.297 694.814C189.166 689.723 190.601 683.76 190.601 676.931C190.601 670.1 189.166 664.14 186.297 659.049C183.432 653.958 179.34 650.025 174.022 647.256C168.704 644.482 162.471 643.098 155.318 643.098L126.706 643.098L126.706 658.028L155.318 658.028C159.334 658.028 163.522 658.619 167.119 660.496C169.797 661.892 171.807 663.745 173.287 666.376C175.093 669.581 175.67 673.294 175.67 676.931C175.67 680.566 175.093 684.281 173.287 687.486C171.807 690.115 169.799 691.968 167.121 693.364C163.522 695.241 159.336 695.832 155.318 695.832L126.706 695.832L126.706 710.762L126.706 710.765Z" fill="#BBBABB"/>
<path d="M264.146 710.765L235.534 710.765C228.381 710.765 222.145 709.378 216.83 706.607C211.512 703.838 207.42 699.905 204.555 694.814C201.686 689.723 200.251 683.76 200.251 676.931C200.251 670.1 201.686 664.14 204.555 659.049C207.42 653.958 211.514 650.025 216.83 647.256C222.147 644.482 228.381 643.098 235.534 643.098L264.146 643.098L264.146 658.028L235.534 658.028C231.518 658.028 227.33 658.619 223.732 660.496C221.055 661.892 219.045 663.745 217.564 666.376C215.759 669.581 215.181 673.294 215.181 676.931C215.181 680.566 215.759 684.281 217.564 687.486C219.045 690.115 221.053 691.968 223.73 693.364C227.33 695.241 231.516 695.832 235.534 695.832L264.146 695.832L264.146 710.762L264.146 710.765Z" fill="#BBBABB"/>
<path d="M229.259 720.789L229.259 749.4C229.259 756.554 227.872 762.787 225.101 768.105C222.332 773.423 218.399 777.515 213.308 780.38C208.217 783.249 202.256 784.684 195.426 784.684C188.595 784.684 182.634 783.249 177.543 780.38C172.452 777.515 168.519 773.423 165.75 768.105C162.977 762.787 161.592 756.554 161.592 749.4L161.592 720.789L176.525 720.789L176.525 749.4C176.525 753.416 177.116 757.605 178.991 761.202C180.386 763.88 182.239 765.89 184.871 767.37C188.076 769.175 191.789 769.753 195.426 769.753C199.06 769.753 202.778 769.175 205.98 767.37C208.61 765.89 210.463 763.882 211.858 761.204C213.735 757.605 214.326 753.419 214.326 749.4L214.326 720.789L229.259 720.789Z" fill="#BBBABB"/>
<path d="M229.259 858.227L229.259 829.615C229.259 822.462 227.872 816.226 225.101 810.911C222.332 805.593 218.399 801.501 213.308 798.636C208.217 795.767 202.256 794.332 195.426 794.332C188.595 794.332 182.634 795.767 177.543 798.636C172.452 801.501 168.519 805.596 165.75 810.911C162.977 816.229 161.592 822.462 161.592 829.615L161.592 858.227L176.525 858.227L176.525 829.615C176.525 825.599 177.116 821.411 178.991 817.814C180.386 815.136 182.239 813.126 184.871 811.646C188.076 809.84 191.789 809.263 195.426 809.263C199.06 809.263 202.778 809.84 205.98 811.646C208.61 813.126 210.463 815.134 211.858 817.812C213.735 821.411 214.326 825.597 214.326 829.615L214.326 858.227L229.259 858.227Z" fill="#BBBABB"/>
<path d="M126.706 942.767L155.318 942.767C162.471 942.767 168.704 941.381 174.022 938.609C179.34 935.84 183.432 931.907 186.297 926.816C189.166 921.725 190.601 915.762 190.601 908.932C190.601 902.101 189.166 896.14 186.297 891.049C183.432 885.958 179.34 882.027 174.022 879.256C168.704 876.483 162.471 875.098 155.318 875.098L126.706 875.098L126.706 890.029L155.318 890.029C159.334 890.029 163.522 890.62 167.119 892.497C169.797 893.892 171.807 895.745 173.287 898.377C175.093 901.582 175.67 905.295 175.67 908.932C175.67 912.568 175.093 916.284 173.287 919.489C171.807 922.118 169.799 923.971 167.122 925.367C163.522 927.244 159.336 927.835 155.318 927.835L126.706 927.835L126.706 942.765L126.706 942.767Z" fill="#BBBABB"/>
<path d="M264.146 942.767L235.534 942.767C228.381 942.767 222.145 941.381 216.83 938.609C211.512 935.84 207.42 931.907 204.555 926.816C201.686 921.725 200.251 915.762 200.251 908.932C200.251 902.101 201.686 896.14 204.555 891.049C207.42 885.958 211.514 882.027 216.83 879.256C222.147 876.483 228.381 875.098 235.534 875.098L264.146 875.098L264.146 890.029L235.534 890.029C231.518 890.029 227.33 890.62 223.732 892.497C221.055 893.892 219.045 895.745 217.564 898.377C215.759 901.582 215.181 905.295 215.181 908.932C215.181 912.568 215.759 916.284 217.564 919.489C219.045 922.118 221.053 923.971 223.73 925.367C227.33 927.244 231.516 927.835 235.534 927.835L264.146 927.835L264.146 942.765L264.146 942.767Z" fill="#BBBABB"/>
<path d="M229.259 952.79L229.259 981.401C229.259 988.555 227.872 994.788 225.101 1000.11C222.332 1005.42 218.399 1009.52 213.308 1012.38C208.217 1015.25 202.256 1016.68 195.426 1016.68C188.595 1016.68 182.634 1015.25 177.543 1012.38C172.452 1009.52 168.519 1005.42 165.75 1000.11C162.977 994.788 161.592 988.555 161.592 981.401L161.592 952.79L176.525 952.79L176.525 981.401C176.525 985.417 177.116 989.604 178.991 993.203C180.386 995.88 182.239 997.891 184.871 999.371C188.076 1001.18 191.789 1001.75 195.426 1001.75C199.06 1001.75 202.777 1001.18 205.98 999.371C208.61 997.891 210.463 995.883 211.858 993.205C213.735 989.604 214.326 985.42 214.326 981.401L214.326 952.79L229.259 952.79Z" fill="#BBBABB"/>
<path d="M102.553 48.2127L102.553 19.6011C102.553 12.4476 101.167 6.21206 98.3956 0.896575C95.6267 -4.42109 91.6934 -8.51343 86.6025 -11.3783C81.5116 -14.2475 75.5507 -15.6821 68.7199 -15.6821C61.8892 -15.6821 55.9284 -14.2475 50.8375 -11.3783C45.7466 -8.51343 41.8155 -4.41891 39.0444 0.896572C36.2711 6.21423 34.8867 12.4476 34.8867 19.6011L34.8867 48.2126L49.8171 48.2126L49.8171 19.6011C49.8171 15.585 50.4079 11.3967 52.2851 7.79929C53.6805 5.12193 55.5338 3.11172 58.1654 1.63132C61.3704 -0.173937 65.0833 -0.751692 68.7199 -0.751692C72.3544 -0.751692 76.0718 -0.173937 79.2746 1.63132C81.904 3.11172 83.7594 5.11975 85.1526 7.79711C87.0298 11.3967 87.6229 15.5828 87.6229 19.6011L87.6229 48.2127L102.553 48.2127Z" fill="#BBBABB"/>
<path d="M0.000147927 132.75L28.6117 132.75C35.7652 132.75 42.0007 131.363 47.3162 128.592C52.6339 125.823 56.7263 121.89 59.5912 116.799C62.4604 111.708 63.895 105.745 63.895 98.9163C63.895 92.0834 62.4604 86.1225 59.5912 81.0316C56.7263 75.9407 52.6317 72.0097 47.3162 69.2386C41.9986 66.4653 35.7652 65.0808 28.6117 65.0808L0.000150885 65.0808L0.000150233 80.0112L28.6117 80.0112C32.6278 80.0112 36.8162 80.6021 40.4136 82.4793C43.0909 83.8747 45.1012 85.7279 46.5816 88.3595C48.3868 91.5645 48.9645 95.2775 48.9645 98.9163C48.9645 102.551 48.3868 106.266 46.5816 109.471C45.1012 112.1 43.0931 113.954 40.4157 115.349C36.8161 117.226 32.63 117.817 28.6117 117.817L0.00014858 117.817L0.000147928 132.747L0.000147927 132.75Z" fill="#BBBABB"/>
<path d="M137.44 132.75L108.828 132.75C101.675 132.75 95.4411 131.363 90.1235 128.592C84.8058 125.823 80.7134 121.89 77.8485 116.799C74.9793 111.708 73.5447 105.745 73.5447 98.9163C73.5447 92.0834 74.9793 86.1225 77.8485 81.0316C80.7134 75.9407 84.8058 72.0097 90.1235 69.2386C95.4411 66.4653 101.675 65.0808 108.828 65.0808L137.44 65.0808L137.44 80.0112L108.828 80.0112C104.812 80.0112 100.624 80.6021 97.0261 82.4793C94.3487 83.8747 92.3385 85.7279 90.8581 88.3595C89.0529 91.5645 88.4752 95.2775 88.4752 98.9163C88.4752 102.551 89.0529 106.266 90.8581 109.471C92.3385 112.1 94.3466 113.954 97.024 115.349C100.624 117.226 104.81 117.817 108.828 117.817L137.44 117.817L137.44 132.747L137.44 132.75Z" fill="#BBBABB"/>
<path d="M102.553 142.772L102.553 171.384C102.553 178.537 101.167 184.771 98.3956 190.088C95.6266 195.406 91.6934 199.498 86.6024 202.363C81.5115 205.232 75.5507 206.667 68.7199 206.667C61.8891 206.667 55.9284 205.232 50.8375 202.363C45.7466 199.498 41.8155 195.406 39.0444 190.088C36.2711 184.771 34.8867 178.537 34.8867 171.384L34.8867 142.772L49.8171 142.772L49.8171 171.384C49.8171 175.4 50.4079 179.586 52.2851 183.186C53.6805 185.863 55.5338 187.873 58.1653 189.354C61.3703 191.159 65.0832 191.737 68.7199 191.737C72.3544 191.737 76.0718 191.159 79.2746 189.354C81.904 187.873 83.7594 185.865 85.1526 183.188C87.0298 179.586 87.6228 175.402 87.6228 171.384L87.6228 142.772L102.553 142.772Z" fill="#BBBABB"/>
<path d="M102.553 280.211L102.553 251.599C102.553 244.446 101.167 238.21 98.3956 232.895C95.6266 227.577 91.6934 223.485 86.6024 220.62C81.5115 217.751 75.5507 216.316 68.7199 216.316C61.8892 216.316 55.9284 217.751 50.8375 220.62C45.7466 223.485 41.8155 227.579 39.0444 232.895C36.2711 238.212 34.8867 244.446 34.8867 251.599L34.8867 280.211L49.8171 280.211L49.8171 251.599C49.8171 247.583 50.4079 243.395 52.2851 239.797C53.6805 237.12 55.5338 235.11 58.1653 233.629C61.3703 231.824 65.0832 231.246 68.7199 231.246C72.3544 231.246 76.0718 231.824 79.2746 233.629C81.904 235.11 83.7594 237.118 85.1526 239.795C87.0298 243.395 87.6228 247.581 87.6228 251.599L87.6228 280.211L102.553 280.211Z" fill="#BBBABB"/>
<path d="M0.000147928 364.752L28.6117 364.752C35.7652 364.752 42.0007 363.365 47.3162 360.594C52.6339 357.825 56.7263 353.892 59.5912 348.801C62.4604 343.71 63.895 337.749 63.895 330.919C63.895 324.088 62.4604 318.127 59.5912 313.036C56.7263 307.945 52.6317 304.014 47.3162 301.243C41.9986 298.47 35.7652 297.085 28.6117 297.085L0.000150885 297.085L0.000150233 312.016L28.6117 312.016C32.6278 312.016 36.8162 312.607 40.4136 314.484C43.0909 315.879 45.1012 317.732 46.5816 320.364C48.3868 323.569 48.9645 327.282 48.9645 330.919C48.9645 334.553 48.3868 338.27 46.5816 341.473C45.1012 344.103 43.0931 345.958 40.4157 347.351C36.8161 349.228 32.63 349.819 28.6117 349.819L0.00014858 349.819L0.000147928 364.75L0.000147928 364.752Z" fill="#BBBABB"/>
<path d="M137.44 364.752L108.828 364.752C101.675 364.752 95.4411 363.365 90.1235 360.594C84.8058 357.825 80.7134 353.892 77.8485 348.801C74.9793 343.71 73.5447 337.749 73.5447 330.919C73.5447 324.088 74.9793 318.127 77.8485 313.036C80.7134 307.945 84.8058 304.014 90.1235 301.243C95.4411 298.47 101.675 297.085 108.828 297.085L137.44 297.085L137.44 312.016L108.828 312.016C104.812 312.016 100.624 312.607 97.0261 314.484C94.3487 315.879 92.3385 317.732 90.8581 320.364C89.0529 323.569 88.4752 327.282 88.4752 330.919C88.4752 334.553 89.0529 338.27 90.8581 341.473C92.3385 344.103 94.3466 345.958 97.024 347.351C100.624 349.228 104.81 349.819 108.828 349.819L137.44 349.819L137.44 364.75L137.44 364.752Z" fill="#BBBABB"/>
<path d="M102.553 374.773L102.553 403.385C102.553 410.538 101.167 416.774 98.3956 422.089C95.6266 427.407 91.6934 431.499 86.6024 434.364C81.5115 437.233 75.5507 438.668 68.7199 438.668C61.8891 438.668 55.9284 437.233 50.8375 434.364C45.7466 431.499 41.8155 427.407 39.0444 422.089C36.2711 416.771 34.8867 410.538 34.8867 403.385L34.8867 374.773L49.8171 374.773L49.8171 403.385C49.8171 407.401 50.4079 411.589 52.2851 415.186C53.6805 417.864 55.5338 419.874 58.1653 421.354C61.3703 423.16 65.0832 423.737 68.7199 423.737C72.3544 423.737 76.0718 423.16 79.2746 421.354C81.904 419.874 83.7594 417.866 85.1526 415.188C87.0298 411.587 87.6228 407.403 87.6228 403.385L87.6228 374.773L102.553 374.773Z" fill="#BBBABB"/>
<path d="M102.553 512.21L102.553 483.599C102.553 476.445 101.167 470.21 98.3956 464.894C95.6266 459.576 91.6934 455.484 86.6024 452.619C81.5115 449.75 75.5507 448.315 68.7199 448.315C61.8892 448.315 55.9284 449.75 50.8375 452.619C45.7466 455.484 41.8155 459.576 39.0444 464.894C36.2711 470.212 34.8867 476.445 34.8867 483.599L34.8867 512.21L49.8171 512.21L49.8171 483.599C49.8171 479.583 50.4079 475.394 52.2851 471.797C53.6805 469.119 55.5338 467.109 58.1653 465.629C61.3703 463.824 65.0832 463.246 68.7199 463.246C72.3544 463.246 76.0718 463.824 79.2746 465.629C81.904 467.109 83.7594 469.117 85.1526 471.795C87.0298 475.396 87.6228 479.58 87.6228 483.599L87.6228 512.21L102.553 512.21Z" fill="#BBBABB"/>
<path d="M0.00011741 596.751L28.6117 596.751C35.7652 596.751 42.0007 595.365 47.3162 592.594C52.6339 589.825 56.7263 585.891 59.5911 580.801C62.4604 575.71 63.8949 569.749 63.8949 562.918C63.8949 556.087 62.4604 550.126 59.5911 545.036C56.7263 539.945 52.6317 536.014 47.3162 533.242C41.9985 530.469 35.7652 529.085 28.6117 529.085L0.000120368 529.085L0.000119715 544.017L28.6117 544.017C32.6278 544.017 36.8161 544.608 40.4136 546.485C43.0909 547.881 45.1011 549.734 46.5815 552.366C48.3868 555.571 48.9645 559.284 48.9645 562.92C48.9645 566.555 48.3868 570.272 46.5815 573.475C45.1011 576.104 43.093 577.96 40.4157 579.353C36.8161 581.23 32.6299 581.821 28.6117 581.821L0.000118063 581.821L0.00011741 596.754L0.00011741 596.751Z" fill="#BBBABB"/>
<path d="M137.44 596.751L108.828 596.751C101.675 596.751 95.4412 595.365 90.1235 592.594C84.8058 589.825 80.7134 585.891 77.8485 580.801C74.9793 575.71 73.5448 569.749 73.5448 562.918C73.5448 556.087 74.9793 550.126 77.8486 545.035C80.7134 539.945 84.8058 536.014 90.1235 533.242C95.4412 530.469 101.675 529.085 108.828 529.085L137.44 529.085L137.44 544.017L108.828 544.017C104.812 544.017 100.624 544.608 97.0261 546.485C94.3488 547.881 92.3386 549.734 90.8582 552.366C89.0529 555.571 88.4752 559.284 88.4752 562.92C88.4752 566.555 89.0529 570.272 90.8582 573.475C92.3386 576.104 94.3466 577.96 97.024 579.353C100.624 581.23 104.81 581.821 108.828 581.821L137.44 581.821L137.44 596.754L137.44 596.751Z" fill="#BBBABB"/>
<path d="M102.553 606.773L102.553 635.385C102.553 642.538 101.167 648.774 98.3956 654.089C95.6267 659.407 91.6934 663.499 86.6025 666.364C81.5116 669.233 75.5507 670.668 68.7199 670.668C61.8892 670.668 55.9284 669.233 50.8375 666.364C45.7466 663.499 41.8155 659.405 39.0444 654.089C36.2711 648.771 34.8867 642.538 34.8867 635.385L34.8867 606.773L49.8171 606.773L49.8171 635.385C49.8171 639.401 50.4079 643.589 52.2851 647.186C53.6805 649.864 55.5338 651.874 58.1654 653.354C61.3704 655.16 65.0833 655.737 68.7199 655.737C72.3544 655.737 76.0718 655.16 79.2746 653.354C81.904 651.874 83.7594 649.866 85.1526 647.189C87.0298 643.589 87.6229 639.403 87.6229 635.385L87.6229 606.773L102.553 606.773Z" fill="#BBBABB"/>
<path d="M102.553 744.213L102.553 715.601C102.553 708.448 101.167 702.215 98.3956 696.897C95.6267 691.579 91.6934 687.487 86.6025 684.622C81.5116 681.753 75.5507 680.318 68.7199 680.318C61.8892 680.318 55.9284 681.753 50.8375 684.622C45.7466 687.487 41.8155 691.579 39.0444 696.897C36.2711 702.215 34.8867 708.448 34.8867 715.601L34.8867 744.213L49.8171 744.213L49.8171 715.601C49.8171 711.585 50.4079 707.399 52.2851 703.799C53.6805 701.122 55.5338 699.112 58.1654 697.632C61.3704 695.826 65.0833 695.249 68.7199 695.249C72.3544 695.249 76.0718 695.826 79.2746 697.632C81.904 699.112 83.7594 701.12 85.1526 703.797C87.0298 707.399 87.6229 711.583 87.6229 715.601L87.6229 744.213L102.553 744.213Z" fill="#BBBABB"/>
<path d="M8.68924e-05 828.753L28.6117 828.753C35.7651 828.753 42.0007 827.366 47.3162 824.595C52.6338 821.826 56.7262 817.893 59.5911 812.802C62.4603 807.711 63.8949 801.75 63.8949 794.919C63.8949 788.089 62.4603 782.128 59.5911 777.037C56.7262 771.946 52.6316 768.015 47.3162 765.244C41.9985 762.47 35.7651 761.086 28.6117 761.086L8.98502e-05 761.086L8.91975e-05 776.019L28.6117 776.019C32.6277 776.019 36.8161 776.609 40.4135 778.485C43.0909 779.88 45.1011 781.733 46.5815 784.365C48.3868 787.57 48.9645 791.283 48.9645 794.919C48.9645 798.554 48.3868 802.271 46.5815 805.474C45.1011 808.103 43.093 809.959 40.4157 811.352C36.816 813.229 32.6299 813.82 28.6117 813.82L8.75451e-05 813.82L8.68924e-05 828.753Z" fill="#BBBABB"/>
<path d="M137.44 828.753L108.828 828.753C101.675 828.753 95.4411 827.366 90.1235 824.595C84.8058 821.826 80.7134 817.893 77.8485 812.802C74.9793 807.711 73.5447 801.75 73.5447 794.919C73.5447 788.089 74.9793 782.128 77.8485 777.037C80.7134 771.946 84.8058 768.015 90.1235 765.244C95.4411 762.47 101.675 761.086 108.828 761.086L137.44 761.086L137.44 776.019L108.828 776.019C104.812 776.019 100.624 776.609 97.0261 778.485C94.3487 779.88 92.3385 781.733 90.8581 784.365C89.0529 787.57 88.4752 791.283 88.4752 794.919C88.4752 798.554 89.0529 802.271 90.8581 805.474C92.3385 808.103 94.3466 809.959 97.024 811.352C100.624 813.229 104.81 813.82 108.828 813.82L137.44 813.82L137.44 828.753Z" fill="#BBBABB"/>
<path d="M102.553 838.775L102.553 867.386C102.553 874.54 101.167 880.775 98.3956 886.091C95.6266 891.408 91.6934 895.501 86.6024 898.366C81.5115 901.235 75.5507 902.669 68.7199 902.669C61.8891 902.669 55.9284 901.235 50.8375 898.366C45.7466 895.501 41.8155 891.406 39.0444 886.091C36.2711 880.773 34.8867 874.54 34.8867 867.386L34.8867 838.775L49.8171 838.775L49.8171 867.386C49.8171 871.402 50.4079 875.591 52.2851 879.188C53.6805 881.865 55.5338 883.876 58.1653 885.356C61.3703 887.161 65.0832 887.739 68.7199 887.739C72.3544 887.739 76.0718 887.161 79.2746 885.356C81.904 883.876 83.7594 881.868 85.1526 879.19C87.0298 875.591 87.6228 871.404 87.6228 867.386L87.6228 838.775L102.553 838.775Z" fill="#BBBABB"/>
<path d="M102.553 976.214L102.553 947.603C102.553 940.449 101.167 934.214 98.3956 928.898C95.6266 923.58 91.6934 919.488 86.6024 916.623C81.5115 913.754 75.5507 912.319 68.7199 912.319C61.8892 912.319 55.9284 913.754 50.8375 916.623C45.7466 919.488 41.8155 923.58 39.0444 928.898C36.2711 934.216 34.8867 940.449 34.8867 947.603L34.8867 976.214L49.8171 976.214L49.8171 947.603C49.8171 943.587 50.4079 939.398 52.2851 935.801C53.6805 933.123 55.5338 931.115 58.1653 929.633C61.3703 927.828 65.0832 927.25 68.7199 927.25C72.3544 927.25 76.0718 927.828 79.2746 929.633C81.904 931.113 83.7594 933.121 85.1526 935.799C87.0298 939.398 87.6228 943.584 87.6228 947.603L87.6228 976.214L102.553 976.214Z" fill="#BBBABB"/>
<path d="M8.68924e-05 1060.75L28.6117 1060.75C35.7651 1060.75 42.0007 1059.37 47.3162 1056.59C52.6338 1053.83 56.7262 1049.89 59.5911 1044.8C62.4603 1039.71 63.8949 1033.75 63.8949 1026.92C63.8949 1020.09 62.4603 1014.13 59.5911 1009.04C56.7262 1003.95 52.6316 1000.01 47.3162 997.243C41.9985 994.47 35.7651 993.085 28.6117 993.085L8.98502e-05 993.085L8.91975e-05 1008.02L28.6117 1008.02C32.6277 1008.02 36.8161 1008.61 40.4135 1010.48C43.0909 1011.88 45.1011 1013.73 46.5815 1016.36C48.3868 1019.57 48.9645 1023.28 48.9645 1026.92C48.9645 1030.55 48.3868 1034.27 46.5815 1037.47C45.1011 1040.1 43.093 1041.96 40.4157 1043.35C36.816 1045.23 32.6299 1045.82 28.6117 1045.82L8.75451e-05 1045.82L8.68925e-05 1060.75L8.68924e-05 1060.75Z" fill="#BBBABB"/>
<path d="M137.44 1060.75L108.828 1060.75C101.675 1060.75 95.4411 1059.37 90.1235 1056.59C84.8058 1053.83 80.7134 1049.89 77.8485 1044.8C74.9793 1039.71 73.5447 1033.75 73.5447 1026.92C73.5447 1020.09 74.9793 1014.13 77.8485 1009.04C80.7134 1003.95 84.8058 1000.01 90.1235 997.243C95.4411 994.47 101.675 993.085 108.828 993.085L137.44 993.085L137.44 1008.02L108.828 1008.02C104.812 1008.02 100.624 1008.61 97.0261 1010.48C94.3487 1011.88 92.3385 1013.73 90.8581 1016.36C89.0529 1019.57 88.4752 1023.28 88.4752 1026.92C88.4752 1030.55 89.0529 1034.27 90.8581 1037.47C92.3385 1040.1 94.3466 1041.96 97.024 1043.35C100.624 1045.23 104.81 1045.82 108.828 1045.82L137.44 1045.82L137.44 1060.75L137.44 1060.75Z" fill="#BBBABB"/>
</g>
</svg>
