<svg width="105" height="96" viewBox="0 0 105 96" fill="none" xmlns="http://www.w3.org/2000/svg">
<rect width="105" height="96" rx="16" fill="white"/>
<g clipPath="url(#clip0_322_2967)">
<path d="M82.9274 51.4471C82.484 48.3754 80.0709 45.9623 76.9992 45.519V43.701C76.9992 38.6851 73.1863 34.6011 68.4993 34.6011C63.9474 34.6011 60.1365 38.5611 59.9995 43.429H60.0575L59.9995 43.439V63.1457C59.9995 69.4456 55.2895 74.5615 49.4996 74.5615C43.7097 74.5615 38.9998 69.4386 38.9998 63.1457V61.4387C40.4497 61.4387 41.9997 60.3878 41.9997 57.4388V54.9238C48.4176 53.2829 52.9996 47.7719 52.9996 41.524V39.4391H50.9996L50.9576 26.4242C50.9431 24.0152 49.2144 21.9582 46.8437 21.5293C46.3323 19.9627 44.6477 19.1072 43.081 19.6187C41.5144 20.1301 40.6589 21.8147 41.1704 23.3814C41.6817 24.948 43.3663 25.8035 44.9331 25.292C45.7719 25.0181 46.4465 24.387 46.7757 23.5683C48.0568 23.9328 48.9442 25.0983 48.9546 26.4302L48.9996 39.4391H46.9996V41.553C46.9199 45.0313 44.5879 48.0541 41.2437 49.0139C39.4544 49.5817 37.5332 49.5817 35.7438 49.0139C32.4035 48.0508 30.0768 45.0286 29.9999 41.553V39.4391H26.9999V26.4392C27.0057 25.0876 27.9147 23.9067 29.2199 23.5553C29.8285 25.1046 31.5779 25.8671 33.1272 25.2585C34.6766 24.6499 35.4391 22.9004 34.8305 21.3512C34.2218 19.802 32.4724 19.0394 30.9231 19.648C30.0836 19.9778 29.4359 20.6662 29.1579 21.5243C26.7613 21.9338 25.0066 24.0079 25 26.4392V39.4391H23V41.519C23 47.7739 27.5849 53.2869 33.9998 54.9238V57.4388C33.9998 60.3878 35.5498 61.4387 36.9998 61.4387V63.1457C36.9998 70.5456 42.6067 76.5615 49.4996 76.5615C56.3925 76.5615 61.9994 70.5386 61.9994 63.1457V43.487C62.0994 39.6921 65.0174 36.6041 68.4993 36.6041C72.0833 36.6041 74.9992 39.788 74.9992 43.704V45.519C71.1729 46.0712 68.5188 49.6208 69.0711 53.4471C69.6233 57.2734 73.1729 59.9275 76.9992 59.3753C80.8255 58.823 83.4796 55.2733 82.9274 51.4471ZM43.9997 23.4393C43.4475 23.4393 42.9997 22.9915 42.9997 22.4393C42.9997 21.8871 43.4475 21.4393 43.9997 21.4393C44.5519 21.4393 44.9997 21.8871 44.9997 22.4393C44.9997 22.9915 44.5519 23.4393 43.9997 23.4393ZM31.9999 21.4393C32.5521 21.4393 32.9999 21.8871 32.9999 22.4393C32.9999 22.9915 32.5521 23.4393 31.9999 23.4393C31.4476 23.4393 30.9999 22.9915 30.9999 22.4393C30.9999 21.8871 31.4476 21.4393 31.9999 21.4393ZM25 41.519V41.439H27.9999V41.553C28.0749 45.8993 30.9665 49.6924 35.1378 50.9159C37.3237 51.608 39.6699 51.608 41.8557 50.9159C46.029 49.694 48.9232 45.9008 48.9996 41.553V41.439H50.9996V41.519C50.9996 47.0819 46.7117 51.9769 40.7997 53.1609C39.4115 53.4389 37.9895 53.5086 36.5808 53.3679C36.1171 53.3229 35.6561 53.2531 35.1998 53.1589C29.2879 51.9769 25 47.0819 25 41.519ZM36.9998 59.4388C36.0998 59.4388 35.9998 58.0388 35.9998 57.4388V55.3168C36.0798 55.3268 36.1618 55.3308 36.2428 55.3388C36.3428 55.3498 36.4428 55.3578 36.5428 55.3668C37.0158 55.4088 37.4928 55.4368 37.9738 55.4378H38.0238C38.5038 55.4378 38.9798 55.4088 39.4498 55.3668C39.5498 55.3578 39.6558 55.3498 39.7588 55.3388C39.8378 55.3298 39.9198 55.3268 39.9988 55.3168V57.4388C39.9988 58.0388 39.8988 59.4388 38.9988 59.4388H36.9998ZM75.9992 57.4388C73.2379 57.4388 70.9993 55.2002 70.9993 52.4389C70.9993 49.6775 73.2379 47.4389 75.9992 47.4389C78.7606 47.4389 80.9992 49.6775 80.9992 52.4389C80.9959 55.199 78.7592 57.4355 75.9992 57.4388Z" fill="#E66926"/>
<path d="M75.9995 49.439C74.3426 49.439 72.9995 50.7821 72.9995 52.4389C72.9995 54.0958 74.3426 55.4389 75.9995 55.4389C77.6563 55.4389 78.9994 54.0958 78.9994 52.4389C78.9994 50.7821 77.6563 49.439 75.9995 49.439ZM75.9995 53.4389C75.4472 53.4389 74.9995 52.9912 74.9995 52.4389C74.9995 51.8867 75.4472 51.4389 75.9995 51.4389C76.5517 51.4389 76.9995 51.8867 76.9995 52.4389C76.9995 52.9912 76.5517 53.4389 75.9995 53.4389Z" fill="#E66926"/>
</g>
<defs>
<clipPath id="clip0_322_2967">
<rect width="60" height="60" fill="white" transform="translate(23 18)"/>
</clipPath>
</defs>
</svg>
