<svg width="100" height="22" viewBox="0 0 100 22" fill="none" xmlns="http://www.w3.org/2000/svg">
<g clipPath="url(#clip0_322_1740)">
<path d="M28.1368 5.25392C27.7979 5.25392 27.5436 5.50823 27.5436 5.84712V17.4566C26.6962 17.626 25.7641 17.7956 24.8319 17.7956C22.7981 17.7956 22.1202 17.0329 22.1202 14.8297V5.84712C22.1202 5.50816 21.8659 5.25392 21.6118 5.25392H18.5611V14.8297C18.5611 19.3209 20.9338 20.7615 24.7472 20.7615C27.7979 20.7615 30.8485 19.9141 31.1028 19.8294V5.25392H28.1368ZM74.8291 20.592C75.0834 20.592 75.4223 20.3377 75.4223 19.9988V8.30459C76.2697 8.13516 77.2019 7.96562 78.134 7.96562C80.1678 7.96562 80.8457 8.72831 80.8457 10.9316V19.9988C80.8457 20.3378 81.1 20.592 81.3542 20.592H84.4048V10.9316C84.4048 6.44029 82.0321 4.99969 78.2188 4.99969C75.1681 4.99969 72.1174 5.84711 71.8632 5.93186V20.592H74.8291ZM62.6264 4.99969C58.6436 4.99969 56.1861 7.11822 56.1861 11.779V14.067C56.1861 19.1514 58.8978 20.8463 61.779 20.8463C63.2196 20.8463 64.7449 19.8294 65.1687 19.2362V20.1683C65.1687 20.4226 65.4229 20.6768 65.6771 20.6768C65.6771 20.6768 68.643 20.6768 68.7278 20.6768V5.84712C68.8127 5.84712 65.8465 4.99969 62.6264 4.99969ZM65.2534 16.8635C64.5755 17.4566 64.067 17.7956 62.6264 17.7956C60.5926 17.8805 59.7452 16.6092 59.7452 13.9822V11.8637C59.7452 8.89779 60.8468 8.05037 62.6264 8.05037C64.067 8.05037 64.9144 8.13525 65.2534 8.2198V16.8635ZM93.3874 4.99969C89.4046 4.99969 86.9471 7.11822 86.9471 11.779V14.067C86.9471 19.1514 89.6588 20.8463 92.6247 20.8463C94.0653 20.8463 95.5907 19.8294 96.0144 19.2362V20.1683C96.0144 20.4226 96.2687 20.6768 96.5228 20.6768C96.5228 20.6768 99.4887 20.6768 99.5735 20.6768V5.84712C99.5735 5.84712 96.6076 4.99969 93.3874 4.99969ZM96.0144 16.8635C95.3364 17.4566 94.828 17.7956 93.3874 17.7956C91.3536 17.7956 90.5062 16.6092 90.5062 13.9822V11.8637C90.5062 8.81305 91.6078 8.05037 93.3874 8.05037C94.828 8.05037 95.6754 8.13525 96.0144 8.2198V16.8635ZM0.426514 20.592C0.93496 20.592 3.64668 20.592 3.64668 20.592C3.90099 20.592 4.15513 20.3377 4.15513 20.0836V11.6095H10.087C11.1039 11.6095 11.7818 12.3722 11.7818 13.2196V20.0836C11.7818 20.3379 12.0361 20.592 12.2903 20.592C12.2903 20.592 15.3409 20.592 15.5104 20.592C15.5104 20.592 15.5104 0.593199 15.5104 0.423706H12.2903C12.036 0.423706 11.7818 0.677968 11.7818 0.932111V8.55882H5.68046C4.83303 8.55882 4.23984 7.8809 4.23984 7.11825V0.932111C4.15497 0.762682 3.98554 0.423706 3.64668 0.423706H0.426514C0.426514 0.593135 0.426514 20.592 0.426514 20.592ZM48.1357 4.99969C46.4409 4.99969 44.8308 5.67764 44.0681 6.18608C42.9665 5.33865 41.4411 4.99969 39.5768 4.99969C36.7804 4.99969 34.4076 5.84711 34.0687 6.0166V20.6768H37.1194C37.4583 20.6768 37.6278 20.4225 37.6278 20.0836V8.30459C38.3905 8.13516 38.9837 8.05027 39.4921 8.05027C41.6106 8.05027 42.1191 8.89767 42.1191 11.0162V20.0835C42.1191 20.3378 42.2885 20.6767 42.6275 20.6767H45.1698C45.5087 20.6767 45.6782 20.4224 45.6782 20.0835V8.72821C46.2714 8.30448 47.034 8.05027 47.7967 8.05027C49.4068 8.05027 50.0847 8.81295 50.0847 10.762V20.0835C50.0847 20.3378 50.2542 20.6767 50.5932 20.6767C50.5932 20.6767 53.3896 20.6767 53.6439 20.6767V10.2536C53.7287 6.35546 51.2711 4.99969 48.1357 4.99969Z" fill="#4E8416"/>
</g>
<defs>
<clipPath id="clip0_322_1740">
<rect width="99.9944" height="21.27" fill="white" transform="translate(0.00280762)"/>
</clipPath>
</defs>
</svg>
