<svg width="159" height="32" viewBox="0 0 159 32" fill="none" xmlns="http://www.w3.org/2000/svg">
<path d="M41.806 8.282V6.54H50.75C52.258 6.54 53.6273 6.748 54.858 7.164C56.106 7.56267 57.1807 8.16067 58.082 8.958C59.0007 9.738 59.7027 10.7 60.188 11.844C60.6907 12.988 60.942 14.2793 60.942 15.718C60.942 17.1567 60.6907 18.448 60.188 19.592C59.7027 20.736 59.0007 21.7153 58.082 22.53C57.1807 23.3273 56.106 23.9427 54.858 24.376C53.6273 24.792 52.258 25 50.75 25H41.806V23.258H42.092C42.5427 23.258 42.9067 23.206 43.184 23.102C43.4787 22.9807 43.626 22.7207 43.626 22.322V9.218C43.626 8.854 43.4787 8.61133 43.184 8.49C42.9067 8.35133 42.5427 8.282 42.092 8.282H41.806ZM50.568 8.568H48.644V22.972H50.568C51.3307 22.972 52.024 22.816 52.648 22.504C53.2893 22.1747 53.8353 21.698 54.286 21.074C54.7367 20.45 55.0833 19.696 55.326 18.812C55.5687 17.9107 55.69 16.8793 55.69 15.718C55.69 14.5567 55.5687 13.534 55.326 12.65C55.0833 11.766 54.7367 11.0207 54.286 10.414C53.8353 9.80733 53.2893 9.348 52.648 9.036C52.024 8.724 51.3307 8.568 50.568 8.568ZM70.4548 16.992V18.578C69.8827 18.6473 69.3627 18.7427 68.8947 18.864C68.4267 18.9853 68.0194 19.1413 67.6727 19.332C67.3261 19.5053 67.0401 19.7047 66.8147 19.93C66.6067 20.138 66.4507 20.3807 66.3467 20.658C66.2427 20.918 66.1907 21.2127 66.1907 21.542C66.1907 21.9233 66.2514 22.244 66.3727 22.504C66.4941 22.764 66.6761 22.9633 66.9187 23.102C67.1614 23.2233 67.4474 23.284 67.7767 23.284C68.1927 23.284 68.5567 23.1713 68.8687 22.946C69.1981 22.7207 69.4927 22.4087 69.7527 22.01C70.0127 21.6113 70.2381 21.1433 70.4287 20.606L70.4548 22.478C70.2121 23.0673 69.8827 23.57 69.4667 23.986C69.0681 24.402 68.5914 24.7227 68.0367 24.948C67.4821 25.156 66.8407 25.26 66.1127 25.26C65.2114 25.26 64.4314 25.13 63.7727 24.87C63.1314 24.5927 62.6287 24.194 62.2647 23.674C61.9181 23.1367 61.7447 22.4867 61.7447 21.724C61.7447 20.996 61.9267 20.372 62.2907 19.852C62.6721 19.332 63.2267 18.89 63.9547 18.526C64.7001 18.162 65.6101 17.8587 66.6847 17.616C67.7767 17.356 69.0334 17.148 70.4548 16.992ZM70.1947 25V22.426L69.8827 22.452V15.406C69.8827 14.938 69.8134 14.5567 69.6747 14.262C69.5361 13.9673 69.3281 13.7507 69.0507 13.612C68.7734 13.4733 68.4181 13.404 67.9848 13.404C67.3781 13.404 66.8667 13.5427 66.4507 13.82C66.0347 14.0973 65.7227 14.4267 65.5147 14.808C65.3587 14.652 65.2721 14.496 65.2547 14.34C65.2374 14.1667 65.2634 14.0107 65.3327 13.872C65.4194 13.716 65.5494 13.586 65.7227 13.482C65.8961 13.3607 66.1041 13.2827 66.3467 13.248V15.978H62.6547V13.17C62.9147 12.9793 63.2961 12.7453 63.7987 12.468C64.3187 12.1907 64.9687 11.948 65.7487 11.74C66.5287 11.532 67.4474 11.428 68.5047 11.428C69.3714 11.428 70.1687 11.5147 70.8967 11.688C71.6421 11.8613 72.2834 12.1387 72.8207 12.52C73.3581 12.884 73.7741 13.3607 74.0687 13.95C74.3634 14.522 74.5107 15.2153 74.5107 16.03V22.504C74.5107 22.6947 74.5627 22.842 74.6667 22.946C74.7707 23.05 74.9181 23.128 75.1087 23.18C75.2994 23.2147 75.5248 23.2493 75.7848 23.284L75.9148 23.31V25H70.1947ZM76.0685 25V23.388H76.0945C76.3545 23.388 76.5885 23.362 76.7965 23.31C77.0045 23.258 77.1692 23.18 77.2905 23.076C77.4118 22.9547 77.4725 22.7987 77.4725 22.608V14.288C77.4725 14.0973 77.4292 13.9587 77.3425 13.872C77.2558 13.768 77.1258 13.69 76.9525 13.638C76.7792 13.5687 76.5538 13.4993 76.2765 13.43L76.0685 13.378V11.688H81.8925V14.574H82.2045V23.154C82.2045 23.206 82.2652 23.2493 82.3865 23.284C82.5252 23.3187 82.6812 23.3447 82.8545 23.362C83.0452 23.3793 83.2185 23.388 83.3745 23.388H83.4525V25H76.0685ZM92.4225 25H85.0385V23.388H85.0645C85.2205 23.388 85.3938 23.3793 85.5845 23.362C85.7752 23.3447 85.9398 23.3187 86.0785 23.284C86.2172 23.2493 86.2865 23.206 86.2865 23.154V15.874C86.2865 15.4407 86.2345 15.094 86.1305 14.834C86.0265 14.5567 85.8705 14.3487 85.6625 14.21C85.4718 14.0713 85.2032 14.002 84.8565 14.002C84.4405 14.002 84.0418 14.1233 83.6605 14.366C83.2965 14.5913 82.9498 14.9293 82.6205 15.38C82.2912 15.8307 81.9705 16.4027 81.6585 17.096V14.626C81.9878 13.9673 82.3865 13.3953 82.8545 12.91C83.3398 12.4247 83.8945 12.0607 84.5185 11.818C85.1598 11.558 85.8618 11.428 86.6245 11.428C87.5085 11.428 88.2798 11.6013 88.9385 11.948C89.5972 12.2773 90.1085 12.7713 90.4725 13.43C90.8365 14.0887 91.0185 14.9207 91.0185 15.926V22.608C91.0185 22.7987 91.0792 22.9547 91.2005 23.076C91.3218 23.18 91.4778 23.258 91.6685 23.31C91.8765 23.362 92.1105 23.388 92.3705 23.388H92.4225V25ZM96.4245 9.868C95.6272 9.868 94.9945 9.67733 94.5265 9.296C94.0758 8.91467 93.8505 8.386 93.8505 7.71C93.8505 7.05133 94.0758 6.53133 94.5265 6.15C94.9945 5.76867 95.6272 5.578 96.4245 5.578C97.2045 5.578 97.8198 5.76867 98.2705 6.15C98.7385 6.53133 98.9725 7.05133 98.9725 7.71C98.9725 8.386 98.7385 8.91467 98.2705 9.296C97.8198 9.67733 97.2045 9.868 96.4245 9.868ZM98.8685 11.688V22.608C98.8685 22.92 98.9985 23.128 99.2585 23.232C99.5185 23.336 99.8392 23.388 100.22 23.388H100.246V25H92.7065V23.388H92.7325C93.1312 23.388 93.4605 23.336 93.7205 23.232C93.9805 23.128 94.1105 22.92 94.1105 22.608V14.288C94.1105 14.0107 94.0152 13.82 93.8245 13.716C93.6338 13.612 93.3305 13.5167 92.9145 13.43L92.7065 13.378V11.688H98.8685ZM110.439 8.438C109.781 8.438 109.174 8.61133 108.619 8.958C108.082 9.30467 107.623 9.79867 107.241 10.44C106.86 11.0813 106.574 11.8527 106.383 12.754C106.193 13.6553 106.097 14.6607 106.097 15.77C106.097 16.9313 106.193 17.9627 106.383 18.864C106.591 19.7653 106.886 20.5367 107.267 21.178C107.666 21.802 108.16 22.2787 108.749 22.608C109.339 22.9373 110.015 23.102 110.777 23.102C111.592 23.102 112.311 22.894 112.935 22.478C113.577 22.0447 114.114 21.4553 114.547 20.71C114.981 19.9473 115.293 19.0893 115.483 18.136L117.381 18.89C117.121 20.138 116.679 21.2473 116.055 22.218C115.449 23.1713 114.651 23.9167 113.663 24.454C112.675 24.9913 111.497 25.26 110.127 25.26C108.758 25.26 107.51 25.0347 106.383 24.584C105.257 24.1333 104.277 23.492 103.445 22.66C102.613 21.8107 101.972 20.8053 101.521 19.644C101.071 18.4827 100.845 17.1913 100.845 15.77C100.845 14.3487 101.079 13.0573 101.547 11.896C102.015 10.7347 102.657 9.738 103.471 8.906C104.303 8.05667 105.257 7.40667 106.331 6.956C107.406 6.50533 108.55 6.28 109.763 6.28C110.994 6.28 112.008 6.49667 112.805 6.93C113.603 7.346 114.244 7.918 114.729 8.646C115.232 9.374 115.622 10.2147 115.899 11.168L114.521 10.934L115.015 6.54H117.121V12.364H114.677C114.435 11.584 114.123 10.8993 113.741 10.31C113.377 9.72067 112.927 9.26133 112.389 8.932C111.852 8.60267 111.202 8.438 110.439 8.438ZM126.927 16.992V18.578C126.355 18.6473 125.835 18.7427 125.367 18.864C124.899 18.9853 124.491 19.1413 124.145 19.332C123.798 19.5053 123.512 19.7047 123.287 19.93C123.079 20.138 122.923 20.3807 122.819 20.658C122.715 20.918 122.663 21.2127 122.663 21.542C122.663 21.9233 122.723 22.244 122.845 22.504C122.966 22.764 123.148 22.9633 123.391 23.102C123.633 23.2233 123.919 23.284 124.249 23.284C124.665 23.284 125.029 23.1713 125.341 22.946C125.67 22.7207 125.965 22.4087 126.225 22.01C126.485 21.6113 126.71 21.1433 126.901 20.606L126.927 22.478C126.684 23.0673 126.355 23.57 125.939 23.986C125.54 24.402 125.063 24.7227 124.509 24.948C123.954 25.156 123.313 25.26 122.585 25.26C121.683 25.26 120.903 25.13 120.245 24.87C119.603 24.5927 119.101 24.194 118.737 23.674C118.39 23.1367 118.217 22.4867 118.217 21.724C118.217 20.996 118.399 20.372 118.763 19.852C119.144 19.332 119.699 18.89 120.427 18.526C121.172 18.162 122.082 17.8587 123.157 17.616C124.249 17.356 125.505 17.148 126.927 16.992ZM126.667 25V22.426L126.355 22.452V15.406C126.355 14.938 126.285 14.5567 126.147 14.262C126.008 13.9673 125.8 13.7507 125.523 13.612C125.245 13.4733 124.89 13.404 124.457 13.404C123.85 13.404 123.339 13.5427 122.923 13.82C122.507 14.0973 122.195 14.4267 121.987 14.808C121.831 14.652 121.744 14.496 121.727 14.34C121.709 14.1667 121.735 14.0107 121.805 13.872C121.891 13.716 122.021 13.586 122.195 13.482C122.368 13.3607 122.576 13.2827 122.819 13.248V15.978H119.127V13.17C119.387 12.9793 119.768 12.7453 120.271 12.468C120.791 12.1907 121.441 11.948 122.221 11.74C123.001 11.532 123.919 11.428 124.977 11.428C125.843 11.428 126.641 11.5147 127.369 11.688C128.114 11.8613 128.755 12.1387 129.293 12.52C129.83 12.884 130.246 13.3607 130.541 13.95C130.835 14.522 130.983 15.2153 130.983 16.03V22.504C130.983 22.6947 131.035 22.842 131.139 22.946C131.243 23.05 131.39 23.128 131.581 23.18C131.771 23.2147 131.997 23.2493 132.257 23.284L132.387 23.31V25H126.667ZM143.122 11.636V15.692C143.001 15.64 142.854 15.6053 142.68 15.588C142.507 15.5533 142.325 15.5273 142.134 15.51C141.961 15.4927 141.779 15.484 141.588 15.484C141.19 15.484 140.817 15.5273 140.47 15.614C140.124 15.6833 139.803 15.8047 139.508 15.978C139.231 16.134 138.98 16.3507 138.754 16.628C138.529 16.9053 138.321 17.2433 138.13 17.642V16.108C138.373 15.2067 138.659 14.418 138.988 13.742C139.318 13.0487 139.734 12.5027 140.236 12.104C140.739 11.7053 141.38 11.506 142.16 11.506C142.368 11.506 142.559 11.5233 142.732 11.558C142.906 11.5753 143.036 11.6013 143.122 11.636ZM132.54 25V23.388H132.566C132.965 23.388 133.294 23.336 133.554 23.232C133.814 23.128 133.944 22.92 133.944 22.608V14.288C133.944 14.1147 133.901 13.976 133.814 13.872C133.728 13.768 133.598 13.69 133.424 13.638C133.251 13.5687 133.026 13.4993 132.748 13.43L132.54 13.378V11.688H138.364V15.9L138.676 15.588V22.894C138.676 23.0327 138.772 23.1453 138.962 23.232C139.153 23.3013 139.378 23.3447 139.638 23.362C139.916 23.3793 140.158 23.388 140.366 23.388H140.574V25H132.54ZM148.355 18.396C148.355 19.1587 148.424 19.8347 148.563 20.424C148.719 21.0133 148.935 21.516 149.213 21.932C149.49 22.3307 149.854 22.634 150.305 22.842C150.755 23.05 151.275 23.154 151.865 23.154C152.489 23.154 153.017 23.0327 153.451 22.79C153.901 22.5473 154.291 22.244 154.621 21.88C154.95 21.4987 155.219 21.1173 155.427 20.736L157.065 21.906C156.735 22.5647 156.302 23.1453 155.765 23.648C155.227 24.1507 154.577 24.5493 153.815 24.844C153.069 25.1213 152.177 25.26 151.137 25.26C149.629 25.26 148.303 24.9827 147.159 24.428C146.032 23.8733 145.157 23.0847 144.533 22.062C143.909 21.022 143.597 19.7913 143.597 18.37C143.597 16.9833 143.9 15.77 144.507 14.73C145.131 13.69 145.971 12.884 147.029 12.312C148.103 11.7227 149.317 11.428 150.669 11.428C151.761 11.428 152.714 11.5927 153.529 11.922C154.361 12.234 155.054 12.7107 155.609 13.352C156.163 13.9933 156.588 14.7993 156.883 15.77C157.177 16.7233 157.325 17.8413 157.325 19.124H147.809V17.252H153.477L152.905 18.006C152.887 17.1393 152.835 16.4113 152.749 15.822C152.662 15.2327 152.532 14.7647 152.359 14.418C152.185 14.0713 151.969 13.8287 151.709 13.69C151.449 13.534 151.137 13.456 150.773 13.456C150.409 13.456 150.079 13.5513 149.785 13.742C149.507 13.9327 149.256 14.2273 149.031 14.626C148.823 15.0247 148.658 15.536 148.537 16.16C148.415 16.784 148.355 17.5293 148.355 18.396Z" fill="#323232"/>
<path fill-rule="evenodd" clip-rule="evenodd" d="M0 4.4599C8.50944 8.68623 12.5195 7.99604 16.8616 0.222656C15.2279 5.88179 14.3302 10.5537 14.2953 14.8084C13.0809 17.1935 12.1067 19.6747 11.4144 22.2498C6.54808 16.2128 2.17323 9.96396 0 4.4599ZM16.0644 24.8511C16.9403 27.1772 18.1525 29.5208 19.7272 31.9998C18.1568 30.2307 16.5406 28.3851 14.933 26.4936C15.2956 25.9192 15.6713 25.3731 16.0644 24.8511Z" fill="#FFCC00"/>
<path d="M8.40245 5.00607C9.78483 5.00607 10.9055 3.88542 10.9055 2.50303C10.9055 1.12065 9.78483 0 8.40245 0C7.02006 0 5.89941 1.12065 5.89941 2.50303C5.89941 3.88542 7.02006 5.00607 8.40245 5.00607Z" fill="#FFCC00"/>
<path fill-rule="evenodd" clip-rule="evenodd" d="M20.3802 7.29515C18.4865 12.4607 23.4074 16.9032 29.2762 14.149C18.8775 19.1048 14.4371 23.2504 11.2046 31.9367C11.0364 22.3876 14.8477 14.1709 20.3802 7.29297V7.29515Z" fill="#FFCC00"/>
<path d="M24.0213 12.5459C25.4037 12.5459 26.5244 11.4252 26.5244 10.0428C26.5244 8.66044 25.4037 7.53979 24.0213 7.53979C22.639 7.53979 21.5183 8.66044 21.5183 10.0428C21.5183 11.4252 22.639 12.5459 24.0213 12.5459Z" fill="#FFCC00"/>
<path d="M1.3562 19.9958H4.70887C5.54758 19.9958 6.27709 20.1575 6.89957 20.4829C7.52205 20.8084 8.00257 21.267 8.33675 21.8655C8.6731 22.4618 8.84128 23.1607 8.84128 23.9601C8.84128 24.7595 8.6731 25.4584 8.33675 26.0547C8.00039 26.651 7.52205 27.1118 6.89957 27.4372C6.27709 27.7627 5.5454 27.9243 4.70887 27.9243H1.3562V26.1748H4.70887C5.17846 26.1748 5.6699 26.1049 6.09144 25.8865C6.40596 25.7227 6.63966 25.5065 6.81439 25.1985C7.02626 24.8228 7.09396 24.3882 7.09396 23.9623C7.09396 23.5364 7.02626 23.1017 6.81439 22.726C6.64185 22.4181 6.40596 22.1997 6.09144 22.038C5.6699 21.8174 5.17846 21.7497 4.70887 21.7497H1.3562V20.0002V19.9958Z" fill="#FFCC00"/>
<path d="M27.9201 19.9958H24.5675C23.7288 19.9958 22.9993 20.1575 22.3768 20.4829C21.7543 20.8084 21.2738 21.267 20.9396 21.8655C20.6032 22.4618 20.4351 23.1607 20.4351 23.9601C20.4351 24.7595 20.6032 25.4584 20.9396 26.0547C21.276 26.651 21.7543 27.1118 22.3768 27.4372C22.9993 27.7627 23.7309 27.9243 24.5675 27.9243H27.9201V26.1748H24.5675C24.0979 26.1748 23.6064 26.1049 23.1849 25.8865C22.8704 25.7227 22.6367 25.5065 22.4619 25.1985C22.2501 24.8228 22.1824 24.3882 22.1824 23.9623C22.1824 23.5364 22.2501 23.1017 22.4619 22.726C22.6345 22.4181 22.8704 22.1997 23.1849 22.038C23.6064 21.8174 24.0979 21.7497 24.5675 21.7497H27.9201V20.0002V19.9958Z" fill="#FFCC00"/>
</svg>
