<svg width="64" height="64" viewBox="0 0 64 64" fill="none" xmlns="http://www.w3.org/2000/svg">
<rect opacity="0.1" width="64" height="64" rx="16" fill="#E66926"/>
<path d="M31.9998 45.5C31.5482 45.4994 31.1072 45.363 30.7342 45.1084C25.2083 41.3572 22.8156 38.7852 21.4958 37.1771C18.6833 33.7494 17.3368 30.2302 17.3748 26.4193C17.4191 22.0522 20.9228 18.5 25.1851 18.5C28.2845 18.5 30.4311 20.2459 31.6813 21.6999C31.7209 21.7455 31.7698 21.7821 31.8248 21.8071C31.8797 21.8322 31.9394 21.8452 31.9998 21.8452C32.0602 21.8452 32.1199 21.8322 32.1748 21.8071C32.2298 21.7821 32.2787 21.7455 32.3183 21.6999C33.5685 20.2445 35.7151 18.5 38.8145 18.5C43.0768 18.5 46.5805 22.0522 46.6248 26.42C46.6628 30.2316 45.3149 33.7508 42.5038 37.1778C41.184 38.7859 38.7913 41.3579 33.2654 45.1091C32.8923 45.3634 32.4514 45.4996 31.9998 45.5Z" fill="#E66926"/>
</svg>
