<svg width="64" height="64" viewBox="0 0 64 64" fill="none" xmlns="http://www.w3.org/2000/svg">
<rect opacity="0.1" width="64" height="64" rx="16" fill="#E66926"/>
<path d="M44.375 20.75H41V19.625C40.9991 18.7302 40.6432 17.8723 40.0105 17.2395C39.3777 16.6068 38.5198 16.2509 37.625 16.25H26.375C25.4802 16.2509 24.6223 16.6068 23.9895 17.2395C23.3568 17.8723 23.0009 18.7302 23 19.625V20.75H19.625C18.4319 20.7513 17.2881 21.2258 16.4445 22.0695C15.6008 22.9131 15.1263 24.0569 15.125 25.25V43.25C15.125 44.4435 15.5991 45.5881 16.443 46.432C17.2869 47.2759 18.4315 47.75 19.625 47.75H44.375C45.5685 47.75 46.7131 47.2759 47.557 46.432C48.4009 45.5881 48.875 44.4435 48.875 43.25V25.25C48.8737 24.0569 48.3992 22.9131 47.5555 22.0695C46.7119 21.2258 45.5681 20.7513 44.375 20.75ZM37.625 35.375H33.125V39.875C33.125 40.1734 33.0065 40.4595 32.7955 40.6705C32.5845 40.8815 32.2984 41 32 41C31.7016 41 31.4155 40.8815 31.2045 40.6705C30.9935 40.4595 30.875 40.1734 30.875 39.875V35.375H26.375C26.0766 35.375 25.7905 35.2565 25.5795 35.0455C25.3685 34.8345 25.25 34.5484 25.25 34.25C25.25 33.9516 25.3685 33.6655 25.5795 33.4545C25.7905 33.2435 26.0766 33.125 26.375 33.125H30.875V28.625C30.875 28.3266 30.9935 28.0405 31.2045 27.8295C31.4155 27.6185 31.7016 27.5 32 27.5C32.2984 27.5 32.5845 27.6185 32.7955 27.8295C33.0065 28.0405 33.125 28.3266 33.125 28.625V33.125H37.625C37.9234 33.125 38.2095 33.2435 38.4205 33.4545C38.6315 33.6655 38.75 33.9516 38.75 34.25C38.75 34.5484 38.6315 34.8345 38.4205 35.0455C38.2095 35.2565 37.9234 35.375 37.625 35.375ZM38.75 20.75H25.25V19.625C25.25 19.3266 25.3685 19.0405 25.5795 18.8295C25.7905 18.6185 26.0766 18.5 26.375 18.5H37.625C37.9234 18.5 38.2095 18.6185 38.4205 18.8295C38.6315 19.0405 38.75 19.3266 38.75 19.625V20.75Z" fill="#E66926"/>
</svg>
