<svg width="24" height="24" viewBox="0 0 24 24" fill="none" xmlns="http://www.w3.org/2000/svg">
<path d="M7.539 23C16.596 23 21.5505 15.3035 21.5505 8.64077C21.5505 8.42539 21.5505 8.20694 21.5415 7.99157C22.5061 7.27543 23.3386 6.38881 24 5.37325C23.099 5.78069 22.1441 6.04922 21.1665 6.17013C22.1963 5.53884 22.9676 4.54555 23.337 3.37489C22.3695 3.96274 21.3105 4.37541 20.2065 4.59483C19.4643 3.78414 18.4821 3.24708 17.4121 3.06684C16.3421 2.88661 15.2441 3.07325 14.288 3.59786C13.3319 4.12247 12.5712 4.95578 12.1237 5.96869C11.6761 6.98161 11.5668 8.11761 11.8125 9.20074C9.85461 9.10005 7.93922 8.57841 6.19056 7.66965C4.4419 6.76089 2.89903 5.48531 1.662 3.92563C1.03401 5.03801 0.842361 6.35381 1.12597 7.60585C1.40958 8.85788 2.14718 9.95228 3.189 10.6668C2.40831 10.6396 1.64478 10.4246 0.96 10.0392V10.1084C0.961346 11.2737 1.35496 12.4028 2.07431 13.3048C2.79366 14.2068 3.79462 14.8264 4.908 15.0589C4.48539 15.1783 4.04884 15.2378 3.6105 15.2358C3.30148 15.2368 2.99307 15.2074 2.6895 15.1481C3.00418 16.1512 3.61691 17.0283 4.44187 17.6564C5.26683 18.2845 6.2627 18.6323 7.29 18.651C5.54483 20.0568 3.3891 20.8192 1.17 20.8155C0.778981 20.8172 0.388235 20.7941 0 20.7463C2.25227 22.2189 4.86795 23.0008 7.539 23Z" fill="#F9F9FA"/>
</svg>
