<svg width="96" height="30" viewBox="0 0 96 30" fill="none" xmlns="http://www.w3.org/2000/svg">
<g clipPath="url(#clip0_322_1717)">
<path d="M4.82708 28.5986C5.79986 28.933 6.82182 29.1021 7.85049 29.0987C12.4017 29.0987 15.5698 25.7987 15.5698 19.5235V0.825005L17.3003 0V19.8484C17.3003 26.249 14.0002 29.98 9.32681 29.98C7.72426 29.9683 6.16013 29.4881 4.82708 28.5986ZM2.85221 26.6961C3.90076 27.045 4.95091 27.2702 5.87562 27.2702C9.70152 27.2702 12.2505 24.8708 12.2505 19.4463V2.25148L13.9504 1.44738V19.5991C13.9504 25.2744 11.0765 28.174 7.07694 28.174C5.60062 28.174 4.10178 27.624 2.85221 26.6961ZM1.65089 24.9994C2.46736 25.2664 3.31728 25.4175 4.17576 25.4481C7.15092 25.4481 8.97622 23.8238 8.97622 19.5492V3.69885L10.6504 2.89475V19.2984C10.6504 24.0988 8.45195 26.2731 5.3015 26.2731C3.97677 26.2668 2.69205 25.8185 1.65089 24.9994ZM7.4018 19.9995V4.35017L0.0266113 7.67431V20.3791C0.0266113 22.8042 1.55118 24.4285 3.80105 24.4285C6.05092 24.4285 7.4018 22.7737 7.4018 19.9995Z" fill="#002677"/>
<path d="M26.7951 4.32283V10.1574C26.7951 12.3124 28.0704 13.9945 30.5068 13.9945C32.5975 13.9945 34.1719 12.4539 34.1719 10.1107V4.48204C34.1615 4.1837 34.27 3.89344 34.4735 3.67509C34.6771 3.45674 34.9591 3.32819 35.2574 3.31771H35.2735L35.4922 3.30323V2.75002H31.8287V3.30163L32.0651 3.3161C32.3634 3.32285 32.6469 3.44775 32.8531 3.66336C33.0594 3.87897 33.1716 4.16765 33.1652 4.46596V9.93383C33.1652 11.7109 32.2372 12.7964 30.7898 12.7964C29.3425 12.7964 28.4628 11.6482 28.4628 9.91936V4.32283C28.4628 3.71011 28.7925 3.35791 29.4856 3.3161L29.7059 3.30163V2.75002H25.5375V3.30163L25.7739 3.3161C26.4493 3.36435 26.7951 3.69885 26.7951 4.32283Z" fill="#002677"/>
<path d="M31.7435 16.7687L31.9783 16.7847C32.5604 16.8153 33.0011 17.0517 33.0011 17.7127V21.1413H28.8809V17.7127C28.8809 17.0517 29.3215 16.8314 29.9037 16.7847L30.124 16.7687V16.2187H25.9556V16.7687L26.192 16.7847C26.7741 16.8153 27.2132 17.0517 27.2132 17.7127V25.7311C27.2132 26.3921 26.7741 26.6285 26.192 26.6591L25.9556 26.6752V27.2252H30.124V26.6752L29.9037 26.6591C29.3215 26.6124 28.8809 26.3921 28.8809 25.7311V21.9905H32.9946V25.7311C32.9946 26.3921 32.554 26.6285 31.9718 26.6591L31.737 26.6752V27.2252H35.9039V26.6752L35.6835 26.6591C35.103 26.6124 34.6623 26.3921 34.6623 25.7311V17.7127C34.6623 17.0517 35.103 16.8314 35.6835 16.7847L35.9039 16.7687V16.2187H31.7435V16.7687Z" fill="#002677"/>
<path d="M35.4777 5.97445V6.4939L35.7913 6.50837C36.2737 6.54053 36.5777 6.77694 36.5777 7.4363V12.2818C36.5777 12.9412 36.248 13.1776 35.7125 13.2081L35.4777 13.2242V13.7597H39.2039V13.2242L38.9835 13.2081C38.4496 13.1776 38.1199 12.9412 38.1199 12.2818V9.70868C38.1505 7.82066 38.9691 6.68849 39.9275 6.68849C40.6673 6.68849 41.1546 7.19185 41.1546 8.16642V12.2818C41.1546 12.9412 40.8233 13.1776 40.2894 13.2081L40.053 13.2242V13.7597H43.7808V13.2242L43.5605 13.2081C43.0265 13.1776 42.6952 12.9412 42.6952 12.2818V7.98791C42.6952 6.76086 41.941 5.73643 40.4438 5.73643C39.3904 5.73643 38.4769 6.36685 38.1167 7.48294V5.77021L35.4777 5.97445Z" fill="#002677"/>
<path d="M56.9906 13.9173C58.5794 13.9173 59.4768 12.8318 59.8387 11.6047L59.1616 11.4182C58.84 12.2673 58.2964 12.9267 57.1964 12.9267C55.9227 12.9267 55.0575 11.7157 55.0575 9.79713H59.948V9.3404C59.948 7.31086 58.7531 5.67532 56.8346 5.67532C54.7745 5.67532 53.4059 7.64215 53.4059 9.79552C53.4059 11.9489 54.7262 13.9173 56.9906 13.9173ZM56.8185 6.5727C57.6837 6.5727 58.2337 7.3768 58.2964 9.0252H55.0881C55.2489 7.50063 55.8745 6.5727 56.8185 6.5727Z" fill="#002677"/>
<path d="M49.2535 11.9972C49.2535 13.2242 49.9933 13.9173 51.1721 13.9173C52.2737 13.9173 52.9974 13.1132 53.3271 11.9666L52.761 11.8058C52.5407 12.4667 52.1788 12.8752 51.6755 12.8752C51.0145 12.8752 50.7942 12.3928 50.7942 11.8219V6.7287H52.9492V5.91174H50.7942V3.48979H50.0094C49.7103 5.31349 48.7823 5.97446 47.8062 6.1787V6.7287H49.2535V11.9972Z" fill="#002677"/>
<path d="M45.9519 4.50295C46.2201 4.49239 46.4739 4.3784 46.6599 4.18488C46.846 3.99136 46.9499 3.73332 46.9499 3.46486C46.9499 3.19641 46.846 2.93837 46.6599 2.74485C46.4739 2.55132 46.2201 2.43733 45.9519 2.42677C45.6829 2.42932 45.4258 2.53841 45.2371 2.73014C45.0484 2.92186 44.9434 3.18058 44.9451 3.44959C44.9413 3.58413 44.964 3.71811 45.0119 3.84388C45.0599 3.96965 45.1321 4.08473 45.2246 4.18256C45.317 4.28038 45.4278 4.35903 45.5507 4.41401C45.6736 4.46898 45.8061 4.49921 45.9406 4.50295H45.9519Z" fill="#002677"/>
<path d="M45.2281 7.43629V12.2818C45.2281 12.9412 44.8969 13.1776 44.3629 13.2081L44.1265 13.2242V13.7597H47.8543V13.2242L47.634 13.2081C47.0985 13.1776 46.7688 12.9412 46.7688 12.2818V5.7702L44.0477 5.97444V6.49389L44.4417 6.50836C44.929 6.52445 45.2281 6.77693 45.2281 7.43629Z" fill="#002677"/>
<path d="M63.9588 13.9173C64.9961 13.9173 65.7986 13.3818 66.1444 12.47V13.7565H68.7705V13.2242L68.5502 13.2081C68.0163 13.1776 67.685 12.9412 67.685 12.2818V2.54578L65.0122 2.78218V3.30163L65.3579 3.3161C65.8404 3.33218 66.1444 3.58467 66.1444 4.24403V7.07607C65.7986 6.19477 64.9961 5.67533 63.9588 5.67533C61.8971 5.67533 60.7344 7.64215 60.7344 9.79553C60.7344 11.9489 61.8971 13.9173 63.9588 13.9173ZM64.2258 6.5727C65.3885 6.5727 66.1444 7.83031 66.1444 9.78909C66.1444 11.7479 65.3885 13.0055 64.2258 13.0055C63.1242 13.0055 62.4005 11.764 62.4005 9.78909C62.4005 7.81423 63.1242 6.5727 64.2258 6.5727Z" fill="#002677"/>
<path d="M87.3693 19.1745C86.4575 19.1745 85.6711 19.7728 85.3253 20.8422V19.234L82.6879 19.4431V19.9609L83.0095 19.977C83.492 20.0092 83.7959 20.244 83.7959 20.9049V25.7488C83.7959 26.4098 83.4743 26.6446 82.9307 26.6768L82.6879 26.6961V27.23H86.4141V26.6961L86.1937 26.68C85.6598 26.6478 85.3301 26.413 85.3301 25.7521V23.1066C85.3607 21.1414 86.2098 19.9143 87.2487 19.9143C87.3449 19.9064 87.4416 19.9208 87.5314 19.9562C87.6212 19.9916 87.7016 20.0471 87.7666 20.1185C87.6317 20.1887 87.5191 20.2951 87.4415 20.4258C87.364 20.5565 87.3245 20.7063 87.3275 20.8583C87.3292 21.0787 87.4175 21.2896 87.5734 21.4455C87.7292 21.6014 87.9401 21.6897 88.1606 21.6914C88.6173 21.6914 88.9936 21.3134 88.9936 20.7795C88.9995 20.5655 88.9614 20.3525 88.8816 20.1539C88.8018 19.9552 88.682 19.775 88.5297 19.6246C88.3774 19.4741 88.1959 19.3565 87.9963 19.2791C87.7966 19.2017 87.5833 19.1661 87.3693 19.1745Z" fill="#002677"/>
<path d="M92.4335 19.1375C90.3734 19.1375 89.0049 21.1028 89.0049 23.2577C89.0049 25.4127 90.3252 27.3779 92.5912 27.3779C94.1784 27.3779 95.0758 26.2924 95.4377 25.067L94.7606 24.8772C94.439 25.7263 93.8954 26.3873 92.7954 26.3873C91.5217 26.3873 90.6565 25.1763 90.6565 23.2577H95.5535V22.801C95.5535 20.7795 94.3521 19.1375 92.4335 19.1375ZM90.6871 22.4874C90.8479 20.9612 91.4735 20.0333 92.4175 20.0333C93.2827 20.0333 93.8327 20.8374 93.8954 22.4874H90.6871Z" fill="#002677"/>
<path d="M81.345 25.9225V21.8168C81.345 20.1346 80.2916 19.144 78.5146 19.144C76.99 19.144 75.6375 20.1507 75.6375 21.299C75.6335 21.5199 75.7174 21.7334 75.8707 21.8925C76.0241 22.0516 76.2344 22.1432 76.4553 22.1473C76.6762 22.1513 76.8897 22.0674 77.0488 21.9141C77.2079 21.7607 77.2996 21.5504 77.3036 21.3295C77.3043 21.1799 77.2653 21.0329 77.1908 20.9032C77.1162 20.7736 77.0087 20.666 76.8791 20.5913C77.1621 20.1973 77.6655 19.9609 78.2782 19.9609C79.2431 19.9609 79.8204 20.6846 79.8204 21.8908V22.2526L77.4918 23.2175C75.935 23.8608 75.4011 24.4285 75.4011 25.4497C75.4011 26.6301 76.2503 27.3795 77.5867 27.3795C78.069 27.3781 78.5394 27.2299 78.9355 26.9547C79.3316 26.6795 79.6347 26.2904 79.8044 25.8389V26.0753C79.8044 26.8794 80.3704 27.3619 81.3145 27.3619C81.65 27.3664 81.9842 27.3187 82.3051 27.2203V26.6961C81.6441 26.7716 81.345 26.5192 81.345 25.9225ZM79.8044 24.1455C79.7256 25.5285 79.034 26.4564 78.0739 26.4564C77.3824 26.4564 76.9482 25.9852 76.9482 25.2615C76.9482 24.6183 77.294 24.1133 77.9549 23.8303L79.8204 22.9972L79.8044 24.1455Z" fill="#002677"/>
<path d="M59.2645 25.2776C59.0442 25.937 58.684 26.3471 58.1806 26.3471C57.5196 26.3471 57.2993 25.8646 57.2993 25.2937V20.1973H59.4543V19.3788H57.2993V16.9568H56.5129C56.2138 18.7821 55.2858 19.4431 54.3113 19.6473V20.1973H55.7587V25.4658C55.7587 26.6928 56.4968 27.3844 57.6772 27.3844C58.7772 27.3844 59.5009 26.5803 59.8306 25.4336L59.2645 25.2776Z" fill="#002677"/>
<path d="M49.2937 25.9225V21.8168C49.2937 20.1346 48.2404 19.144 46.4633 19.144C44.9387 19.144 43.5863 20.1507 43.5863 21.299C43.5822 21.5199 43.6661 21.7334 43.8194 21.8925C43.9728 22.0516 44.1831 22.1432 44.404 22.1473C44.625 22.1513 44.8385 22.0674 44.9976 21.9141C45.1566 21.7607 45.2483 21.5504 45.2523 21.3295C45.2525 21.18 45.2134 21.0332 45.1389 20.9036C45.0643 20.774 44.9571 20.6664 44.8278 20.5913C45.1108 20.1973 45.6142 19.9609 46.2269 19.9609C47.1918 19.9609 47.7692 20.6846 47.7692 21.8908V22.2526L45.4405 23.2175C43.8838 23.8608 43.3499 24.4285 43.3499 25.4497C43.3499 26.6301 44.199 27.3795 45.5354 27.3795C46.0177 27.3781 46.4882 27.2299 46.8843 26.9547C47.2804 26.6795 47.5834 26.2904 47.7531 25.8389V26.0753C47.7531 26.8794 48.3192 27.3619 49.2632 27.3619C49.5988 27.3664 49.933 27.3187 50.2538 27.2203V26.6961C49.5929 26.7716 49.2937 26.5192 49.2937 25.9225ZM47.7531 24.1455C47.6743 25.5285 46.9828 26.4564 46.0227 26.4564C45.3312 26.4564 44.8969 25.9852 44.8969 25.2615C44.8969 24.6183 45.2427 24.1133 45.9037 23.8303L47.7692 22.9972L47.7531 24.1455Z" fill="#002677"/>
<path d="M72.2716 26.3937C70.9979 26.3937 70.1327 25.1827 70.1327 23.2642C70.1327 21.3134 70.9819 20.0719 72.2556 20.0719C72.8216 20.0719 73.2623 20.2601 73.5292 20.6058C73.4093 20.6848 73.3107 20.7922 73.2422 20.9184C73.1738 21.0447 73.1376 21.1859 73.1368 21.3295C73.1385 21.5499 73.2268 21.7608 73.3827 21.9167C73.5386 22.0726 73.7495 22.1609 73.9699 22.1626C74.4411 22.1626 74.8029 21.7862 74.8029 21.2507C74.8029 20.3067 73.8605 19.144 72.1768 19.144C69.8336 19.144 68.4779 21.1092 68.4779 23.2642C68.4779 25.4191 69.7982 27.3844 72.0642 27.3844C73.6209 27.3844 74.5006 26.3471 74.848 25.1667L74.1645 24.9624C73.875 25.7649 73.3411 26.3937 72.2716 26.3937Z" fill="#002677"/>
<path d="M53.274 25.7488V16.0144L50.5996 16.2428V16.7622L50.9454 16.7783C51.4278 16.7944 51.7318 17.0453 51.7318 17.7062V25.7472C51.7318 26.4082 51.4021 26.643 50.8666 26.6752L50.6318 26.6912V27.2252H54.358V26.6961L54.1376 26.68C53.6037 26.6446 53.274 26.4098 53.274 25.7488Z" fill="#002677"/>
<path d="M67.0498 25.7488V21.4549C67.0498 20.2295 66.2956 19.2035 64.7983 19.2035C63.7433 19.2035 62.8315 19.8323 62.4697 20.9484V16.0144L59.8 16.2428V16.7622L60.1458 16.7783C60.6283 16.7944 60.9322 17.0453 60.9322 17.7062V25.7472C60.9322 26.4082 60.6025 26.643 60.067 26.6752L59.8306 26.6912V27.2252H63.5584V26.6961L63.3381 26.68C62.8042 26.6478 62.4729 26.413 62.4729 25.752V23.1789C62.505 21.2925 63.322 20.1603 64.2821 20.1603C65.0219 20.1603 65.5091 20.6637 65.5091 21.6383V25.7585C65.5091 26.4195 65.1779 26.6542 64.6439 26.6864L64.4075 26.7025V27.2364H68.1353V26.6961L67.915 26.68C67.3795 26.6446 67.0498 26.4098 67.0498 25.7488Z" fill="#002677"/>
<path d="M39.6381 19.1375C37.578 19.1375 36.2111 21.1092 36.2111 23.2642C36.2111 25.4192 37.533 27.3844 39.7973 27.3844C41.3862 27.3844 42.282 26.2988 42.6438 25.0734L41.9668 24.8836C41.6452 25.7328 41.1016 26.3937 40.0016 26.3937C38.7279 26.3937 37.8627 25.1828 37.8627 23.2642H42.7532V22.8074C42.7516 20.7795 41.5567 19.1375 39.6381 19.1375ZM37.8932 22.4874C38.0541 20.9612 38.678 20.0333 39.622 20.0333C40.4873 20.0333 41.0373 20.8374 41.1 22.4874H37.8932Z" fill="#002677"/>
</g>
<defs>
<clipPath id="clip0_322_1717">
<rect width="95.5269" height="29.98" fill="white" transform="translate(0.0266113)"/>
</clipPath>
</defs>
</svg>
