<svg width="105" height="96" viewBox="0 0 105 96" fill="none" xmlns="http://www.w3.org/2000/svg">
<rect width="105" height="96" rx="16" fill="white"/>
<g clipPath="url(#clip0_322_2985)">
<path d="M53.0001 27.7826C53.7175 27.7826 54.3045 27.1956 54.3045 26.4783V25.8261C54.3045 25.1087 53.7175 24.5217 53.0001 24.5217C52.2828 24.5217 51.6958 25.1087 51.6958 25.8261V26.4783C51.6958 27.1956 52.2828 27.7826 53.0001 27.7826Z" fill="#E66926"/>
<path d="M53.0001 68.2173C52.2828 68.2173 51.6958 68.8042 51.6958 69.5216V70.1738C51.6958 70.8912 52.2828 71.4782 53.0001 71.4782C53.7175 71.4782 54.3045 70.8912 54.3045 70.1738V69.5216C54.3045 68.8042 53.7175 68.2173 53.0001 68.2173Z" fill="#E66926"/>
<path d="M31.478 46.6956H30.8258C30.1084 46.6956 29.5215 47.2825 29.5215 47.9999C29.5215 48.7173 30.1084 49.3043 30.8258 49.3043H31.478C32.1954 49.3043 32.7824 48.7173 32.7824 47.9999C32.7824 47.2825 32.1954 46.6956 31.478 46.6956Z" fill="#E66926"/>
<path d="M75.1738 46.6956H74.5216C73.8042 46.6956 73.2173 47.2825 73.2173 47.9999C73.2173 48.7173 73.8042 49.3043 74.5216 49.3043H75.1738C75.8912 49.3043 76.4782 48.7173 76.4782 47.9999C76.4782 47.2825 75.8912 46.6956 75.1738 46.6956Z" fill="#E66926"/>
<path d="M38.2608 31.4348C37.7391 30.913 36.9565 30.913 36.4348 31.4348C35.913 31.9565 35.913 32.7391 36.4348 33.2608L36.8913 33.7174C37.1522 33.9782 37.4782 34.1087 37.8043 34.1087C38.1304 34.1087 38.4565 33.9782 38.7174 33.7174C39.2391 33.1956 39.2391 32.413 38.7174 31.8913L38.2608 31.4348Z" fill="#E66926"/>
<path d="M36.8913 62.2827L36.4348 62.7392C35.913 63.2609 35.913 64.0435 36.4348 64.5653C36.6956 64.8261 37.0217 64.9566 37.3478 64.9566C37.6739 64.9566 38 64.8261 38.2608 64.5653L38.7174 64.1087C39.2391 63.587 39.2391 62.8044 38.7174 62.2827C38.1956 61.7609 37.413 61.7609 36.8913 62.2827Z" fill="#E66926"/>
<path d="M67.7389 31.4348L67.2824 31.8913C66.7607 32.413 66.7607 33.1956 67.2824 33.7174C67.5433 33.9782 67.8694 34.1087 68.1955 34.1087C68.5215 34.1087 68.8476 33.9782 69.1085 33.7174L69.565 33.2608C70.0868 32.7391 70.0868 31.9565 69.565 31.4348C69.0433 30.913 68.2607 30.913 67.7389 31.4348Z" fill="#E66926"/>
<path d="M54.3045 47.4784V35.6088C54.3045 34.8914 53.7175 34.3044 53.0001 34.3044C52.2828 34.3044 51.6958 34.8914 51.6958 35.6088V48.0001C51.6958 48.3262 51.8262 48.6523 52.0871 48.9131L66.3697 63.1957C66.6306 63.4566 66.9567 63.5871 67.2828 63.5871C67.6088 63.5871 67.9349 63.4566 68.1958 63.1957C68.7175 62.674 68.7175 61.8914 68.1958 61.3697L54.3045 47.4784Z" fill="#E66926"/>
<path d="M53 18C36.4348 18 23 31.4348 23 48C23 64.5652 36.4348 78 53 78C69.5652 78 83 64.5652 83 48C83 31.4348 69.5652 18 53 18ZM53 75.3913C37.8696 75.3913 25.6087 63.1304 25.6087 48C25.6087 32.8696 37.8696 20.6087 53 20.6087C68.1304 20.6087 80.3913 32.8696 80.3913 48C80.3913 63.1304 68.1304 75.3913 53 75.3913Z" fill="#E66926"/>
</g>
<defs>
<clipPath id="clip0_322_2985">
<rect width="60" height="60" fill="white" transform="translate(23 18)"/>
</clipPath>
</defs>
</svg>
