<svg width="64" height="64" viewBox="0 0 64 64" fill="none" xmlns="http://www.w3.org/2000/svg">
<rect opacity="0.1" width="64" height="64" rx="16" fill="#E66926"/>
<path d="M20.7148 21.3126H43.2148C43.4777 21.3124 43.7402 21.3291 44.0009 21.3625C43.9126 20.7422 43.6995 20.1462 43.3746 19.6104C43.0496 19.0747 42.6196 18.6103 42.1103 18.2452C41.601 17.8802 41.0231 17.6221 40.4114 17.4864C39.7997 17.3508 39.1669 17.3404 38.551 17.4559L20.0469 20.6151H20.0258C18.8643 20.8372 17.8314 21.4943 17.138 22.4523C18.1826 21.7093 19.433 21.3109 20.7148 21.3126ZM43.2148 23.0001H20.7148C19.5218 23.0014 18.3779 23.4759 17.5343 24.3195C16.6907 25.1631 16.2161 26.307 16.2148 27.5001V41.0001C16.2161 42.1931 16.6907 43.337 17.5343 44.1806C18.3779 45.0242 19.5218 45.4988 20.7148 45.5001H43.2148C44.4079 45.4988 45.5518 45.0242 46.3954 44.1806C47.239 43.337 47.7135 42.1931 47.7148 41.0001V27.5001C47.7135 26.307 47.239 25.1631 46.3954 24.3195C45.5518 23.4759 44.4079 23.0014 43.2148 23.0001ZM39.875 36.5001C39.43 36.5001 38.995 36.3681 38.625 36.1209C38.255 35.8736 37.9666 35.5222 37.7963 35.1111C37.626 34.7 37.5814 34.2476 37.6682 33.8111C37.755 33.3746 37.9693 32.9737 38.284 32.6591C38.5987 32.3444 38.9996 32.1301 39.436 32.0433C39.8725 31.9565 40.3249 32.001 40.736 32.1713C41.1472 32.3416 41.4986 32.63 41.7458 33C41.993 33.37 42.125 33.805 42.125 34.2501C42.125 34.8468 41.8879 35.4191 41.466 35.841C41.044 36.263 40.4717 36.5001 39.875 36.5001Z" fill="#E66926"/>
<path d="M16.25 32.2461V25.25C16.25 23.7263 17.0938 21.1719 20.0223 20.6185C22.5078 20.1523 24.9688 20.1523 24.9688 20.1523C24.9688 20.1523 26.5859 21.2773 25.25 21.2773C23.9141 21.2773 23.9492 23 25.25 23C26.5508 23 25.25 24.6523 25.25 24.6523L20.0117 30.5938L16.25 32.2461Z" fill="#E66926"/>
</svg>
