<svg width="24" height="24" viewBox="0 0 24 24" fill="none" xmlns="http://www.w3.org/2000/svg">
<path d="M23.4975 6.5104C23.3616 6.02593 23.0969 5.58732 22.7316 5.24119C22.3559 4.88441 21.8955 4.6292 21.3937 4.49965C19.516 4.00496 11.993 4.00496 11.993 4.00496C8.85676 3.96929 5.72128 4.12616 2.60427 4.47466C2.10252 4.61379 1.64296 4.8747 1.26645 5.23419C0.896497 5.58997 0.628533 6.0287 0.488551 6.5094C0.15229 8.32002 -0.0110893 10.1585 0.0006171 12C-0.0113813 13.8399 0.151597 15.6777 0.488551 17.4906C0.625533 17.9693 0.892497 18.406 1.26345 18.7588C1.6344 19.1116 2.09634 19.3664 2.60427 19.5013C4.50701 19.995 11.993 19.995 11.993 19.995C15.1332 20.0307 18.2727 19.8739 21.3937 19.5253C21.8955 19.3958 22.3559 19.1406 22.7316 18.7838C23.0968 18.4377 23.3611 17.999 23.4965 17.5146C23.8415 15.7046 24.0093 13.8654 23.9974 12.023C24.0233 10.1727 23.8558 8.32484 23.4975 6.5094V6.5104ZM9.60133 15.4219V8.57912L15.8605 12.001L9.60133 15.4219Z" fill="#F9F9FA"/>
</svg>
